<?xml version="1.0" encoding="utf-8"?>
<!-- Generator: Adobe Illustrator 27.8.0, SVG Export Plug-In . SVG Version: 6.00 Build 0)  -->
<svg version="1.1" id="Layer_1" xmlns="http://www.w3.org/2000/svg" xmlns:xlink="http://www.w3.org/1999/xlink" x="0px" y="0px"
	 viewBox="0 0 195.3 153.4" style="enable-background:new 0 0 195.3 153.4;" xml:space="preserve">
<style type="text/css">
	.st0{fill:#FFFFFF;}
	.st1{fill:#26225B;stroke:#FFFFFF;stroke-miterlimit:10;}
	.st2{fill:#ED408E;}
	.st3{fill:none;}
</style>
<g>
	<circle class="st0" cx="93" cy="76.7" r="76.7"/>
	<g>
		<path class="st2" d="M97.4,105.8c-0.3-0.3-0.7-0.4-1.1-0.1l-4.2,3.3c-5.6,4.4-11.9,6.7-18.1,6.7c-6.3,0-12.5-2.3-18.1-6.7
			c-7.8-6.1-16.6-9.4-25.7-9.4s-17.9,3.2-25.7,9.4l-4.2,3.3c-0.3,0.3-0.4,0.7-0.1,1.1l6.6,8.4c0.3,0.3,0.7,0.4,1.1,0.1l4.2-3.3
			c5.6-4.4,11.9-6.7,18.1-6.7s12.5,2.3,18.1,6.7c7.8,6.1,16.6,9.4,25.7,9.4c9,0,17.9-3.2,25.7-9.4l4.2-3.3c0.3-0.3,0.4-0.7,0.1-1.1
			L97.4,105.8z"/>
		<path class="st2" d="M141.7,104.6c0.3,0.3,0.8,0.2,1.1-0.1l6.6-8.4c0.3-0.3,0.2-0.8-0.1-1.1l-4.2-3.3c-7.8-6.1-16.6-9.4-25.7-9.4
			s-17.9,3.2-25.7,9.4L89.5,95c-0.3,0.3-0.4,0.7-0.1,1.1l6.6,8.4c0.3,0.3,0.7,0.4,1.1,0.1l4.2-3.3c5.6-4.4,11.9-6.7,18.1-6.7
			c6.3,0,12.5,2.3,18.1,6.7L141.7,104.6z"/>
		<path class="st2" d="M195.1,114.2l-6.6-8.4c-0.3-0.3-0.7-0.4-1.1-0.1l-4.6,3.6c-5,4-11.3,6.2-17.7,6.2c-6.4,0-12.7-2.2-17.7-6.2
			l-4.6-3.6c-0.3-0.3-0.8-0.2-1.1,0.1l-6.6,8.4c-0.3,0.3-0.2,0.8,0.1,1.1l4.2,3.3c7.8,6.1,16.6,9.4,25.7,9.4c9,0,17.9-3.2,25.7-9.4
			l4.2-3.3C195.3,115,195.4,114.5,195.1,114.2z"/>
	</g>
</g>
</svg>
