<?xml version="1.0" encoding="utf-8"?>
<!-- Generator: Adobe Illustrator 27.8.0, SVG Export Plug-In . SVG Version: 6.00 Build 0)  -->
<svg version="1.1" id="Layer_1" xmlns="http://www.w3.org/2000/svg" xmlns:xlink="http://www.w3.org/1999/xlink" x="0px" y="0px"
	 viewBox="0 0 218 75.1" style="enable-background:new 0 0 218 75.1;" xml:space="preserve">
<style type="text/css">
	.st0{fill:#FFFFFF;}
	.st1{fill:#26225B;stroke:#FFFFFF;stroke-miterlimit:10;}
	.st2{fill:#ED408E;}
	.st3{fill:none;}
</style>
<g>
	<g>
		<path class="st0" d="M61.7,12.1h8.9L66,34.5C64.1,43.4,57.8,48,48.8,48c-4.6,0-9.3-1.2-12.4-4l1.4-6.5c3.3,2.4,7.4,3.6,10.7,3.6
			c4.7,0,7.7-2.2,8.7-7.1l0.5-2.3c-2.1,3.5-5.3,5.4-9.1,5.4c-6.6,0-9.9-5-8.3-12.6L43,12.1h8.9l-2.5,11.8c-0.8,3.6,0.8,5.6,4,5.6
			c3.1,0,5.1-1.7,5.8-5.4L61.7,12.1z"/>
		<path class="st0" d="M72,26.3c0-8.5,6.5-14.7,15.7-14.7c8.3,0,13.7,4.7,13.7,12.1c0,8.5-6.4,14.6-15.6,14.6
			C77.4,38.3,72,33.6,72,26.3z M92.4,24.3c0-3.4-2.1-5.5-5.2-5.5c-3.6,0-6.3,2.9-6.3,6.8c0,3.4,2.1,5.4,5.2,5.4
			C89.8,31.1,92.4,28.2,92.4,24.3z"/>
		<path class="st0" d="M126.5,12.1h8.9l-4.7,22.4c-1.8,8.8-8.1,13.5-17.2,13.5c-4.6,0-9.3-1.2-12.4-4l1.4-6.5
			c3.3,2.4,7.4,3.6,10.7,3.6c4.7,0,7.7-2.2,8.7-7.1l0.5-2.3c-2.1,3.5-5.3,5.4-9.1,5.4c-6.6,0-9.9-5-8.3-12.6l2.7-12.4h8.9l-2.5,11.8
			c-0.8,3.6,0.8,5.6,4,5.6c3.1,0,5.1-1.7,5.8-5.4L126.5,12.1z"/>
		<path class="st0" d="M136.8,26.3c0-8.5,6.5-14.7,15.7-14.7c8.3,0,13.7,4.7,13.7,12.1c0,8.5-6.4,14.6-15.6,14.6
			C142.2,38.3,136.8,33.6,136.8,26.3z M157.2,24.3c0-3.4-2.1-5.5-5.2-5.5c-3.6,0-6.3,2.9-6.3,6.8c0,3.4,2.1,5.4,5.2,5.4
			C154.6,31.1,157.2,28.2,157.2,24.3z"/>
		<path class="st0" d="M192.7,12.1h8.8l-4.9,23.5c-1.7,7.9-8.5,12.4-17.4,12.4c-4.6,0-9.2-1-13-3.6l1.3-6c3.8,2.1,7.6,3.2,11.4,3.2
			c4.9,0,7.9-2.2,8.8-6.6l0.8-3.8c-2.3,4-5.6,6.1-9.7,6.1c-5.6,0-9.4-3.6-9.4-10.4c0-8.1,5.3-15.2,13.6-15.2c4.6,0,7.5,2.7,8.3,6.9
			L192.7,12.1z M190.3,23.7c0-3.5-2.6-5.2-5.3-5.2c-4.1,0-6.5,3.2-6.5,7.1c0,3,2.4,4.7,5.3,4.7C187.6,30.3,190.3,27.4,190.3,23.7z"
			/>
		<path class="st0" d="M201.3,37.8l5.5-25.7h8.9l-5.5,25.7H201.3z M207.4,4.7c0-2.7,2.1-4.7,5.3-4.7c3.2,0,5.2,1.9,5.2,4.7
			s-2.1,4.7-5.2,4.7C209.6,9.4,207.4,7.4,207.4,4.7z"/>
	</g>
	<g>
		<path class="st0" d="M67.2,59.8c-0.2-0.2-0.5-0.3-0.7-0.1L63.6,62c-3.9,3-8.2,4.7-12.5,4.7c-4.3,0-8.7-1.6-12.5-4.7
			c-5.4-4.2-11.5-6.5-17.7-6.5S8.5,57.7,3.1,62l-2.9,2.3C0,64.4-0.1,64.8,0.1,65l4.6,5.8c0.2,0.2,0.5,0.3,0.7,0.1l2.9-2.3
			c3.9-3,8.2-4.7,12.5-4.7s8.7,1.6,12.5,4.7c5.4,4.2,11.5,6.5,17.7,6.5c6.2,0,12.4-2.2,17.7-6.5l2.9-2.3c0.2-0.2,0.3-0.5,0.1-0.7
			L67.2,59.8z"/>
		<path class="st0" d="M97.8,58.9c0.2,0.2,0.5,0.1,0.7-0.1l4.6-5.8c0.2-0.2,0.1-0.5-0.1-0.7l-2.9-2.3c-5.4-4.2-11.5-6.5-17.7-6.5
			c-6.2,0-12.4,2.2-17.7,6.5l-2.9,2.3c-0.2,0.2-0.3,0.5-0.1,0.7l4.6,5.8c0.2,0.2,0.5,0.3,0.7,0.1l2.9-2.3c3.9-3,8.2-4.7,12.5-4.7
			s8.7,1.6,12.5,4.7L97.8,58.9z"/>
		<path class="st0" d="M161.1,58.9c0.2,0.2,0.5,0.1,0.7-0.1l4.6-5.8c0.2-0.2,0.1-0.5-0.1-0.7l-2.9-2.3c-5.4-4.2-11.5-6.5-17.7-6.5
			s-12.4,2.2-17.7,6.5l-2.9,2.3c-0.2,0.2-0.3,0.5-0.1,0.7l4.6,5.8c0.2,0.2,0.5,0.3,0.7,0.1l2.9-2.3c3.9-3,8.2-4.7,12.5-4.7
			s8.7,1.6,12.5,4.7L161.1,58.9z"/>
		<path class="st0" d="M134.7,65.6l-4.6-5.8c-0.2-0.2-0.5-0.3-0.7-0.1l-3.2,2.5c-3.5,2.7-7.8,4.2-12.2,4.2c-4.4,0-8.8-1.5-12.2-4.3
			l-3.2-2.5c-0.2-0.2-0.5-0.1-0.7,0.1l-4.6,5.8c-0.2,0.2-0.1,0.5,0.1,0.7l2.9,2.3c5.4,4.2,11.5,6.5,17.7,6.5
			c6.2,0,12.4-2.2,17.7-6.5l2.9-2.3C134.9,66.1,134.9,65.8,134.7,65.6z"/>
	</g>
</g>
</svg>
