<?xml version="1.0" encoding="utf-8"?>
<!-- Generator: Adobe Illustrator 27.8.0, SVG Export Plug-In . SVG Version: 6.00 Build 0)  -->
<svg version="1.1" id="Layer_1" xmlns="http://www.w3.org/2000/svg" xmlns:xlink="http://www.w3.org/1999/xlink" x="0px" y="0px"
	 viewBox="0 0 615.5 120.6" style="enable-background:new 0 0 615.5 120.6;" xml:space="preserve">
<style type="text/css">
	.st0{fill:#FFFFFF;}
</style>
<g>
	<path id="Path_10" class="st0" d="M74.1,52.6h10.4l-1.7,11.2H72.4L74.1,52.6z M84.5,51.7H73.4l-0.1,0.7l-1.7,11.2l-0.1,1h12.1
		l0.1-0.7l1.7-11.2l0.1-1L84.5,51.7z M51.7,35.1h60.4l-7.2,47.7H44.6L51.7,35.1z M51,34.2l-7.4,49.4h62.1l7.4-49.4L51,34.2z
		 M46.3,30h72.7l-8.7,57.9H37.6L46.3,30z M119.1,29.1H45.6l-0.1,0.7l-8.7,57.9l-0.1,1h74.4l0.1-0.7l8.7-57.9l0.1-1L119.1,29.1z
		 M17.9,5H155l-17,112.5h-31.3l0.1-0.6l0.1-1H32.5l-0.1,0.7l-0.1,0.8H1L17.9,5z M17.2,4.1L0,118.3h33l0.2-1.5H106l-0.2,1.5h33
		L156,4.1H17.2z"/>
	<g>
		<path id="Path_11" class="st0" d="M215.6,1.4l-0.4,2.7l-0.1,1h20l-2.8,18.8h-20l-0.1,0.7l-0.5,3.2l-0.1,1h20.2l-8.2,55h-20.3
			l-0.1,0.7l-0.5,3.2l-0.1,1h20.2l0,0.3l1.1-0.2l9.6-1.5l0.5-0.1l0.1-0.5l6-21.4l0.3-1.1h-9.3l3.8-24.9h71.2l-3.8,24.9h-35.7
			l-0.2,0.6l-4.7,16.8l-0.3,1.2l1.3-0.2l7.7-1.2l0.7-0.1l0-0.7l0.4-8.4H295c-0.3,7.1-0.3,13.6,0,19.3c0.3,5.8,0.8,13.2,1.6,22.1
			c-4.6,0.3-9.1,0.9-13.6,1.8c-4.4,0.8-8.7,2-12.8,3.7l-0.3-9.3l0-1l-0.9,0.2l-45.5,8.7c0.6-10.6,0.8-19.5,0.6-26.5l-1.7-0.1
			l-2.8,18.2h-20.2l-0.1,0.7l-1.2,7.7h-25.2l1.1-7.5l0.1-1h-21.9l3.1-20.8h21.9l0.1-0.7l0.5-3.2l0.1-1h-19.4l8.3-55h19.4l0.1-0.7
			l0.5-3.2l0.1-1h-21.9L168,5.1h21.9l0.1-0.7l0.4-3L215.6,1.4z M203.3,49.7h6.4l0.1-0.7l0.8-5l0.1-1h-6.4l-0.1,0.7l-0.8,5
			L203.3,49.7 M183.3,49.7h6.3l0.1-0.7l0.8-5l0.1-1h-6.3l-0.1,0.7l-0.8,5L183.3,49.7 M200.3,69.9h6.4l0.1-0.7l0.8-5.5l0.1-1h-6.4
			l-0.1,0.7l-0.8,5.5L200.3,69.9 M180.2,69.9h6.3l0.1-0.7l0.8-5.5l0.1-1h-6.3l-0.1,0.7l-0.8,5.5L180.2,69.9 M307.3,3.3L303.2,31
			h-63.1l4.2-27.7H307.3 M216.6,0.6h-26.9l-0.6,3.7h-21.9l-3.1,20.5H186l-0.5,3.2h-19.4l-8.6,56.7H177l-0.5,3.2h-21.9l-3.4,22.5
			h21.9l-1.3,8.4h26.9l1.3-8.4h20.2l2.9-18.9c0.2,7.2,0,16.4-0.6,27.5L269,110l0.4,10.5c3-1.5,7.6-2.9,13.8-4.1
			c4.7-1,9.5-1.7,14.3-1.8c-0.8-9.4-1.4-17-1.7-23c-0.3-6-0.3-12.7,0-20.1h-25.4l-0.5,9.2l-7.7,1.2l4.7-16.8h35.8l4-26.6h-72.9
			l-4,26.6h9.2l-6,21.4l-9.6,1.5l0-0.2h-20.2l0.5-3.2h20.3l8.4-56.7h-20.2l0.5-3.2h20l3.1-20.5h-20L216.6,0.6z M209.8,43.9l-0.8,5
			h-4.7l0.8-5H209.8z M189.6,43.9l-0.8,5h-4.6l0.8-5H189.6z M206.8,63.6l-0.8,5.5h-4.7l0.8-5.5H206.8z M186.6,63.6l-0.8,5.5h-4.6
			l0.8-5.5H186.6z M308.3,2.4h-64.8l-4.4,29.3h64.8L308.3,2.4z"/>
		<path id="Path_12" class="st0" d="M409.6,0.8l-0.7,3.3l-0.2,1h48.2l-2.1,13.6h-50.3l-0.2,0.6c-0.4,1-0.7,1.9-1,2.5l-0.5,1.2h47.4
			l-2.1,13.9h-50.7l-0.2,0.5l-1.4,2.9l-0.6,1.2h59.5l-2.1,13.9H434l-0.1,0.7l-0.5,3.1l-0.1,1h22l-2.6,17.4h-22l-0.1,0.7l-3.8,25.4
			c-0.6,4.3-2,7.4-3.9,9.4s-4.9,3.2-8.7,3.8c-6,0.7-12,1-18,0.9h-15.7c0.4-4.1,0.4-8.3-0.1-12.4l-0.2-1.4l-1.1,0.9
			c-6.2,4.7-12.7,8.9-19.5,12.5c-1.7-2.8-3.9-5.9-6.4-9.3c-2.1-2.8-4.3-5.5-6.7-8.1c5.9-3.2,11.8-6.7,17.6-10.4
			c5.2-3.2,10.2-6.7,14.9-10.6l0.3-0.2l0.1,0.1l12.4,15.3l0.2,0.3h0.4c1.4,0.1,2.8-0.1,4.1-0.4c0.8-0.2,1.4-0.7,1.8-1.4
			c0.3-0.8,0.5-1.7,0.6-2.6l1.8-11.6l0.1-1h-30.2l-0.2,0.2c-12.7,12.4-30.4,24.9-52.9,37.1l-2.2-4.1c-2.6-5-4.9-9.1-6.8-12.1
			c-1.6-2.6-3.5-5-5.7-7.1c8.8-3.5,17.4-7.7,25.6-12.4l2.6-1.5h-20.8l2.6-17.4h38.1l0.2-0.4l0.2-0.3c1-1.2,1.7-2.2,2.1-2.8l0.8-1.3
			h-37.4l2.1-13.9h44.3l0.2-0.5l1.4-2.9l0.6-1.2h-38.4l2.1-13.9h41.9l0.2-0.6l0.9-2.6l0.4-1.1h-46.6l2.1-13.6h47.8l0.1-0.7l0.5-3.6
			L409.6,0.8z M384.9,60.1h18.3l0.1-0.7l0.5-3.1l0.1-1h-15.9l-0.2,0.4l-2,3.1L384.9,60.1 M410.6,0h-35.5l-0.6,4.3h-47.8l-2.3,15.3
			h46.5l-0.9,2.6h-42l-2.4,15.6h38.1l-1.4,2.9h-44.5l-2.4,15.6h36.8c-0.4,0.6-1.1,1.5-2.1,2.8l-0.2,0.3h-38.4l-2.9,19.1h18.8
			c-8.6,4.9-17.5,9.2-26.7,12.8c2.5,2.3,4.7,4.9,6.5,7.8c1.9,3.1,4.2,7.1,6.8,12.1l2.6,4.9c23-12.4,40.9-25,53.8-37.6h7.6
			c-4.7,3.8-9.6,7.4-14.8,10.6c-6.1,3.9-12.3,7.5-18.5,10.9c2.6,2.8,5.1,5.7,7.4,8.8c2.7,3.6,5,6.9,6.8,9.9
			c7.1-3.8,13.9-8.1,20.3-13c0.5,4.4,0.5,8.8,0,13.1h16.7c6,0.1,12.1-0.2,18.1-0.9c4-0.6,7.1-2,9.2-4.1c2.1-2.1,3.5-5.4,4.2-9.9
			l3.8-25.4h22l2.9-19.1h-22l0.5-3.1h18.6l2.4-15.6h-59.1l1.4-2.9h50.9l2.4-15.6h-47.1c0.3-0.7,0.6-1.6,1-2.6h50.4l2.3-15.3h-48.1
			L410.6,0z M402.9,56.2l-0.5,3.1h-16l2-3.1H402.9z M399.6,78.4L397.8,90c-0.1,0.8-0.3,1.6-0.5,2.4c-0.3,0.5-0.8,0.8-1.3,0.9
			c-1.2,0.3-2.5,0.4-3.8,0.4l-12.4-15.3L399.6,78.4z"/>
		<path id="Path_13" class="st0" d="M614.5,3.6l-14.3,94.6c-0.8,5.2-2.5,9-5.1,11.4c-2.6,2.4-6.6,4.1-11.9,4.8
			c-5.3,0.8-13.4,1.2-24.1,1.2l-34.7-0.1c0.3-3.1,0.4-5.8,0.4-8.2c0-2.6-0.3-5.1-0.9-7.7l-0.1-0.6h-22.2l-0.1,0.7l-0.5,3.6h-33.3
			l7.4-49.1h91.7l-5.2,34.5l-0.2,1.1l1.1-0.2c1.5-0.1,2.9-0.7,4.1-1.7c0.8-0.9,1.2-2,1.4-3.1l8.7-57.8l0.1-1H473.2l3.4-22.5
			L614.5,3.6z M504.8,78.3h26.9l0.1-0.7l0.8-5l0.1-1h-26.9l-0.1,0.7l-0.8,5L504.8,78.3 M570.8,30.6L568.1,49h-94l2.8-18.4H570.8
			 M615.5,2.8H475.9l-3.6,24.1h103.6l-8.7,57.8c-0.1,1-0.5,1.9-1.2,2.7c-1,0.8-2.3,1.3-3.6,1.5l5.3-35.5h-93.4l-7.6,50.7h35l0.6-4.3
			h20.8c0.5,2.5,0.8,5,0.9,7.5c0,2.5-0.1,5.6-0.4,9l35.6,0.2c10.7,0,18.8-0.4,24.2-1.2c5.4-0.8,9.5-2.5,12.3-5
			c2.8-2.5,4.6-6.5,5.4-11.9L615.5,2.8z M531.7,72.4l-0.8,5h-25.2l0.8-5H531.7z M571.8,29.8h-95.7l-3,20h95.7L571.8,29.8z"/>
	</g>
</g>
</svg>
