<?xml version="1.0" encoding="utf-8"?>
<!-- Generator: Adobe Illustrator 27.8.0, SVG Export Plug-In . SVG Version: 6.00 Build 0)  -->
<svg version="1.1" id="Layer_1" xmlns="http://www.w3.org/2000/svg" xmlns:xlink="http://www.w3.org/1999/xlink" x="0px" y="0px"
	 viewBox="0 0 371.9 73.9" style="enable-background:new 0 0 371.9 73.9;" xml:space="preserve">
<style type="text/css">
	.st0{fill:#FFFFFF;}
	.st1{fill:#26225B;stroke:#FFFFFF;stroke-miterlimit:10;}
	.st2{fill:#ED408E;}
	.st3{fill:none;}
</style>
<g>
	<g>
		<path class="st1" d="M94,3.5L83.8,71.3H64.9l0.1-0.3l0.1-0.6h-0.6H20.6h-0.4l-0.1,0.4L20,71.3H1.2L11.4,3.5H94 M22.7,53.9h0.6
			h43.8h0.4l0.1-0.4l5.3-34.9l0.1-0.6h-0.6H28.5h-0.4L28,18.5l-5.3,34.9L22.7,53.9 M68.1,21.6l-4.3,28.7H27.4l4.3-28.7H68.1
			 M43.6,39.4h0.6h6.3h0.4L51,39l1-6.7l0.1-0.6h-0.6h-6.3h-0.4l-0.1,0.4l-1,6.7L43.6,39.4 M94.6,3H11L0.6,71.8h19.9l0.1-0.9h43.8
			l-0.1,0.9h19.9L94.6,3L94.6,3z M72.3,18.5l-5.3,34.9H23.2l5.3-34.9H72.3L72.3,18.5z M68.7,21.1H31.3l-4.5,29.7h37.4L68.7,21.1
			L68.7,21.1z M51.5,32.2l-1,6.7h-6.3l1-6.7H51.5L51.5,32.2z"/>
		<path class="st1" d="M130.5,1.4L130.2,3l-0.1,0.6h0.6h11.5l-1.7,11.3h-11.6h-0.4l-0.1,0.4l-0.3,1.9l-0.1,0.6h0.6h11.6L135.2,51
			h-11.8H123l-0.1,0.4l-0.3,1.9l-0.1,0.6h0.6h11.6l0,0.2l0.7-0.1l5.8-0.9l0.3-0.1l0.1-0.3l3.6-12.9l0.2-0.6h-0.7h-4.9l2.3-15h42.9
			l-2.3,15h-21.1h-0.4l-0.1,0.4l-2.8,10.1l-0.2,0.8l0.8-0.1l4.6-0.7l0.4-0.1l0-0.4l0.3-5h14.3c-0.2,4.3-0.2,8.2,0,11.6
			c0.2,3.5,0.5,8,0.9,13.3c-2,0.1-4.8,0.4-8.2,1.1c-3.3,0.7-5.9,1.4-7.7,2.2l-0.2-5.6l0-0.6l-0.6,0.1l-27.4,5.2
			c0.4-6.4,0.5-11.8,0.3-16l-1-0.1l-1.7,11h-11.7h-0.4l-0.1,0.4l-0.7,4.6h-15.2l0.7-4.5l0.1-0.6h-0.6H92.3l1.9-12.5h12.7h0.4
			l0.1-0.4l0.3-1.9l0.1-0.6h-0.6H96.1l5-33.2h11.3h0.4l0.1-0.4l0.3-1.9l0.1-0.6h-0.6h-12.6l1.7-11.3h12.7h0.4l0.1-0.4l0.3-1.8H130.5
			 M123.1,30.5h0.6h2.9h0.4L127,30l0.5-3l0.1-0.6h-0.6h-2.9h-0.4l-0.1,0.4l-0.5,3L123.1,30.5 M111,30.5h0.6h2.8h0.4l0.1-0.4l0.5-3
			l0.1-0.6h-0.6H112h-0.4l-0.1,0.4l-0.5,3L111,30.5 M121.2,42.6h0.6h2.9h0.4l0.1-0.4l0.5-3.3l0.1-0.6h-0.6h-2.9h-0.4l-0.1,0.4
			l-0.5,3.3L121.2,42.6 M109.2,42.6h0.6h2.8h0.4l0.1-0.4l0.5-3.3l0.1-0.6H113h-2.8h-0.4l-0.1,0.4l-0.5,3.3L109.2,42.6 M185.7,2.5
			l-2.5,16.7h-38l2.5-16.7H185.7 M131.1,0.9h-16.2l-0.3,2.2h-13.2l-1.9,12.3h13.2l-0.3,1.9h-11.7l-5.2,34.2h11.7l-0.3,1.9H93.8
			l-2,13.5h13.2l-0.8,5.1h16.2l0.8-5.1h12.2l1.7-11.4c0.1,4.4,0,9.9-0.4,16.6l28.1-5.3l0.2,6.4c1.8-0.9,4.6-1.7,8.3-2.5
			c3.7-0.7,6.6-1.1,8.6-1.1c-0.5-5.6-0.8-10.3-1-13.9c-0.2-3.6-0.2-7.6,0-12.1h-15.3l-0.3,5.5l-4.6,0.7l2.8-10.1H183l2.4-16h-43.9
			l-2.4,16h5.5L141,52.6l-5.8,0.9l0-0.1h-12.2l0.3-1.9h12.2l5.1-34.2h-12.2l0.3-1.9h12.1l1.9-12.3h-12.1L131.1,0.9L131.1,0.9z
			 M126.9,26.9l-0.5,3h-2.9l0.5-3H126.9L126.9,26.9z M114.8,26.9l-0.5,3h-2.8l0.5-3H114.8L114.8,26.9z M125.2,38.8l-0.5,3.3h-2.9
			l0.5-3.3H125.2L125.2,38.8z M113,38.8l-0.5,3.3h-2.8l0.5-3.3H113L113,38.8z M186.3,2h-39l-2.7,17.7h39L186.3,2L186.3,2z"/>
		<path class="st1" d="M247.3,1l-0.4,2l-0.1,0.6h0.6h28.4l-1.2,8.2h-30h-0.4l-0.1,0.3c-0.2,0.6-0.4,1.1-0.6,1.5l-0.3,0.7h0.8h27.8
			l-1.3,8.4h-30.2H240l-0.1,0.3l-0.8,1.7l-0.3,0.7h0.8h35.1l-1.3,8.4h-10.8H262l-0.1,0.4l-0.3,1.8l-0.1,0.6h0.6h12.7l-1.6,10.5
			h-12.8H260l-0.1,0.4l-2.3,15.3c-0.4,2.6-1.2,4.5-2.4,5.7c-1.2,1.2-2.9,2-5.2,2.3c-2.4,0.4-6,0.5-10.8,0.5h-9.5
			c0.3-2.8,0.2-5.3-0.1-7.5l-0.1-0.8l-0.7,0.5c-3.7,2.8-7.6,5.3-11.7,7.6c-1-1.7-2.3-3.6-3.9-5.6c-1.5-1.9-2.8-3.6-4-4.9
			c3.6-1.9,7.1-4,10.6-6.2c3.7-2.3,6.7-4.5,9-6.4L229,48L229,48l7.5,9.2l0.2,0.2h0.2c1.2,0,2-0.1,2.5-0.3c0.6-0.2,0.9-0.5,1.1-0.8
			c0.1-0.2,0.2-0.5,0.3-1.6l1.1-7l0.1-0.6h-0.6h-11.9h-1h-4.5h-0.2l-0.1,0.1c-7.6,7.5-18.3,15-31.9,22.3l-1.3-2.5
			c-1.6-3-3-5.5-4.1-7.3c-1-1.6-2.2-3.1-3.4-4.3c6.3-2.6,11.5-5.1,15.4-7.5l1.6-0.9h-1.8h-10.7l1.6-10.5h22.7h0.3l0.1-0.2l0.1-0.2
			c0.6-0.7,1-1.3,1.3-1.7l0.5-0.8h-0.9h-21.6l1.3-8.4h26.4h0.3l0.1-0.3l0.8-1.7l0.3-0.7h-0.8h-22.3l1.3-8.4h24.9h0.4L224,14l0.5-1.6
			l0.2-0.7H224h-27.4l1.2-8.2h28.4h0.4l0.1-0.4L227,1H247.3 M232.4,36.7h0.9h9.7h0.4l0.1-0.4l0.3-1.8l0.1-0.6h-0.6h-8.7h-0.3
			l-0.1,0.2l-1.2,1.8L232.4,36.7 M248,0.5h-21.4l-0.4,2.6h-28.8l-1.4,9.2h28l-0.5,1.6h-25.3l-1.4,9.4h22.9l-0.8,1.7h-26.8l-1.4,9.4
			h22.2c-0.2,0.4-0.7,0.9-1.3,1.7l-0.1,0.2h-23.1l-1.7,11.5h11.3c-4.1,2.5-9.5,5-16.1,7.7c1.5,1.3,2.8,2.9,3.9,4.7
			c1.2,1.8,2.5,4.3,4.1,7.3l1.6,2.9c13.8-7.5,24.6-15,32.4-22.6h4.6c-2.3,1.9-5.2,4-8.9,6.4c-3.7,2.3-7.4,4.5-11.2,6.5
			c1.3,1.4,2.8,3.1,4.4,5.3c1.6,2.2,3,4.2,4.1,5.9c4.3-2.3,8.4-4.9,12.2-7.8c0.3,2.3,0.3,5,0,7.9h10c4.8,0,8.5-0.2,10.9-0.6
			c2.4-0.4,4.3-1.2,5.5-2.4c1.3-1.3,2.1-3.2,2.5-5.9l2.3-15.3h13.3l1.7-11.5h-13.3l0.3-1.8h11.2l1.4-9.4h-35.6l0.8-1.7H271l1.4-9.4
			H244c0.2-0.4,0.4-1,0.6-1.6H275l1.4-9.2h-29L248,0.5L248,0.5z M243.3,34.4l-0.3,1.8h-9.7l1.2-1.8H243.3L243.3,34.4z M241.3,47.7
			l-1.1,7c-0.1,0.7-0.2,1.2-0.3,1.4c-0.1,0.2-0.4,0.4-0.8,0.6c-0.4,0.2-1.2,0.2-2.3,0.2l-7.5-9.2H241.3L241.3,47.7z"/>
		<path class="st1" d="M370.8,2.7l-8.6,57c-0.5,3.1-1.5,5.4-3.1,6.9c-1.6,1.5-4,2.4-7.1,2.9c-3.2,0.5-8.1,0.7-14.5,0.7l-20.9-0.1
			c0.2-1.9,0.2-3.5,0.2-4.9c0-1.6-0.2-3.1-0.5-4.6l-0.1-0.4h-0.4h-12.5h-0.4l-0.1,0.4l-0.3,2.2h-20.1l4.5-29.6h55.2l-3.1,20.8
			l-0.1,0.7l0.7-0.1c1.2-0.2,2-0.5,2.4-1c0.4-0.5,0.7-1.1,0.8-1.9l5.2-34.8l0.1-0.6h-0.6h-61.8l2-13.5H370.8 M304.7,47.7h0.6h15.2
			h0.4l0.1-0.4l0.5-3l0.1-0.6h-0.6h-15.2h-0.4l-0.1,0.4l-0.5,3L304.7,47.7 M344.5,19L342.8,30h-56.6l1.7-11.1H344.5 M371.4,2.2
			h-84.1l-2.2,14.5h62.4l-5.2,34.8c-0.1,0.7-0.3,1.2-0.7,1.6c-0.4,0.4-1.1,0.7-2.2,0.9l3.2-21.4h-56.3l-4.6,30.6h21.1l0.4-2.6h12.5
			c0.3,1.5,0.5,3,0.5,4.5c0,1.5-0.1,3.3-0.3,5.4l21.4,0.1c6.4,0,11.3-0.2,14.6-0.7c3.3-0.5,5.7-1.5,7.4-3c1.7-1.5,2.8-3.9,3.2-7.2
			L371.4,2.2L371.4,2.2z M320.9,44.1l-0.5,3h-15.2l0.5-3H320.9L320.9,44.1z M345.1,18.5h-57.6l-1.8,12.1h57.6L345.1,18.5L345.1,18.5
			z"/>
	</g>
</g>
</svg>
