<?xml version="1.0" encoding="utf-8"?>
<!-- Generator: Adobe Illustrator 27.8.0, SVG Export Plug-In . SVG Version: 6.00 Build 0)  -->
<svg version="1.0" id="Layer_1" xmlns="http://www.w3.org/2000/svg" xmlns:xlink="http://www.w3.org/1999/xlink" x="0px" y="0px"
	 viewBox="0 0 475.3 163.7" style="enable-background:new 0 0 475.3 163.7;" xml:space="preserve">
<style type="text/css">
	.st0{filter:url(#Adobe_OpacityMaskFilter);}
	.st1{fill:url(#SVGID_00000124148823818819550040000016052706220669710775_);}
	.st2{fill:url(#SVGID_00000041268008211657541190000014894805349613101716_);}
	.st3{mask:url(#SVGID_1_);}
	.st4{fill:#FFFFFF;}
</style>
<defs>
	<filter id="Adobe_OpacityMaskFilter" filterUnits="userSpaceOnUse" x="0" y="0" width="475.3" height="163.7">
		<feFlood  style="flood-color:white;flood-opacity:1" result="back"/>
		<feBlend  in="SourceGraphic" in2="back" mode="normal"/>
	</filter>
</defs>
<mask maskUnits="userSpaceOnUse" x="0" y="0" width="475.3" height="163.7" id="SVGID_1_">
	<g class="st0">
		
			<radialGradient id="SVGID_00000150092086468514884770000007693857787412419999_" cx="423.4628" cy="-31.5409" r="149.9763" gradientUnits="userSpaceOnUse">
			<stop  offset="0.3338" style="stop-color:#000000"/>
			<stop  offset="0.3926" style="stop-color:#050505"/>
			<stop  offset="0.4578" style="stop-color:#121212"/>
			<stop  offset="0.526" style="stop-color:#282828"/>
			<stop  offset="0.5963" style="stop-color:#474747"/>
			<stop  offset="0.6683" style="stop-color:#6F6F6F"/>
			<stop  offset="0.7416" style="stop-color:#A0A0A0"/>
			<stop  offset="0.8147" style="stop-color:#D9D9D9"/>
			<stop  offset="0.8592" style="stop-color:#FFFFFF"/>
		</radialGradient>
		<circle style="fill:url(#SVGID_00000150092086468514884770000007693857787412419999_);" cx="423.5" cy="-31.5" r="150.9"/>
		
			<radialGradient id="SVGID_00000108266947392813789860000005610165791254945715_" cx="30.1459" cy="191.2915" r="149.9763" gradientUnits="userSpaceOnUse">
			<stop  offset="0.3338" style="stop-color:#000000"/>
			<stop  offset="0.3926" style="stop-color:#050505"/>
			<stop  offset="0.4578" style="stop-color:#121212"/>
			<stop  offset="0.526" style="stop-color:#282828"/>
			<stop  offset="0.5963" style="stop-color:#474747"/>
			<stop  offset="0.6683" style="stop-color:#6F6F6F"/>
			<stop  offset="0.7416" style="stop-color:#A0A0A0"/>
			<stop  offset="0.8147" style="stop-color:#D9D9D9"/>
			<stop  offset="0.8592" style="stop-color:#FFFFFF"/>
		</radialGradient>
		<circle style="fill:url(#SVGID_00000108266947392813789860000005610165791254945715_);" cx="30.1" cy="191.3" r="150.9"/>
	</g>
</mask>
<g class="st3">
	<g>
		<path class="st4" d="M134.6,26.4h19.5l-10.3,48.9c-4,19.3-17.7,29.4-37.5,29.4c-10,0-20.2-2.5-27-8.6l3-14.2
			c7.1,5.3,16.1,7.8,23.4,7.8c10.3,0,16.8-4.9,19.1-15.5l1-5c-4.7,7.5-11.6,11.7-19.8,11.7c-14.4,0-21.6-11-18.1-27.4l5.9-27h19.4
			l-5.4,25.7c-1.7,7.8,1.8,12.2,8.6,12.2c6.8,0,11.1-3.7,12.7-11.7L134.6,26.4z"/>
		<path class="st4" d="M157,57.4c0-18.6,14.1-32.1,34.1-32.1c18.1,0,29.8,10.3,29.8,26.4c0,18.5-14,31.9-33.9,31.9
			C168.9,83.6,157,73.4,157,57.4z M201.6,53.1c0-7.4-4.5-12-11.3-12c-7.9,0-13.6,6.3-13.6,14.7c0,7.3,4.5,11.9,11.3,11.9
			C195.9,67.7,201.6,61.5,201.6,53.1z"/>
		<path class="st4" d="M275.9,26.4h19.5l-10.3,48.9c-4,19.3-17.7,29.4-37.5,29.4c-10,0-20.2-2.5-27-8.6l3-14.2
			c7.1,5.3,16.1,7.8,23.4,7.8c10.3,0,16.8-4.9,19.1-15.5l1-5c-4.7,7.5-11.6,11.7-19.8,11.7c-14.4,0-21.6-11-18.1-27.4l5.9-27h19.4
			L249,52.1c-1.7,7.8,1.8,12.2,8.6,12.2c6.8,0,11.1-3.7,12.7-11.7L275.9,26.4z"/>
		<path class="st4" d="M298.3,57.4c0-18.6,14.1-32.1,34.1-32.1c18.1,0,29.8,10.3,29.8,26.4c0,18.5-14,31.9-33.9,31.9
			C310.2,83.6,298.3,73.4,298.3,57.4z M342.9,53.1c0-7.4-4.5-12-11.3-12c-7.9,0-13.6,6.3-13.6,14.7c0,7.3,4.5,11.9,11.3,11.9
			C337.2,67.7,342.9,61.5,342.9,53.1z"/>
		<path class="st4" d="M420.2,26.4h19.3l-10.8,51.2c-3.7,17.2-18.6,27-37.9,27c-10.1,0-20.1-2.2-28.3-7.9l2.8-13.2
			c8.3,4.7,16.5,6.9,24.8,6.9c10.8,0,17.3-4.9,19.3-14.3l1.8-8.3c-5,8.6-12.3,13.4-21.2,13.4c-12.3,0-20.5-7.8-20.5-22.7
			c0-17.7,11.6-33.3,29.6-33.3c10,0,16.3,5.9,18.1,15.1L420.2,26.4z M414.9,51.8c0-7.6-5.7-11.3-11.6-11.3c-9,0-14.1,7-14.1,15.5
			c0,6.6,5.3,10.2,11.6,10.2C409.1,66.2,414.9,59.7,414.9,51.8z"/>
		<path class="st4" d="M438.9,82.5l12-56.1h19.4l-12,56.1H438.9z M452.3,10.2c0-6,4.7-10.2,11.5-10.2c6.9,0,11.4,4.2,11.4,10.2
			s-4.5,10.2-11.4,10.2C457,20.4,452.3,16.2,452.3,10.2z"/>
	</g>
	<g>
		<path class="st4" d="M146.6,130.3c-0.4-0.5-1.1-0.6-1.6-0.2l-6.3,5c-8.4,6.6-17.8,10.2-27.3,10.2c-9.4,0-18.9-3.5-27.3-10.2
			C72.4,125.9,59,121,45.4,121s-27,4.9-38.7,14.1l-6.3,5c-0.5,0.4-0.6,1.1-0.2,1.6l10,12.7c0.4,0.5,1.1,0.6,1.6,0.2l6.3-5
			c8.4-6.6,17.8-10.2,27.3-10.2s18.9,3.5,27.3,10.2c11.7,9.2,25.1,14.1,38.7,14.1c13.6,0,27-4.9,38.7-14.1l6.3-5
			c0.5-0.4,0.6-1.1,0.2-1.6L146.6,130.3z"/>
		<path class="st4" d="M213.4,128.5c0.5,0.4,1.2,0.3,1.6-0.2l10-12.7c0.4-0.5,0.3-1.2-0.2-1.6l-6.3-5C206.8,99.9,193.4,95,179.8,95
			c-13.6,0-27,4.9-38.7,14.1l-6.3,5c-0.5,0.4-0.6,1.1-0.2,1.6l10,12.7c0.4,0.5,1.1,0.6,1.6,0.2l6.3-5c8.4-6.6,17.9-10.2,27.3-10.2
			c9.4,0,18.9,3.5,27.3,10.2L213.4,128.5z"/>
		<path class="st4" d="M351.2,128.5c0.5,0.4,1.2,0.3,1.6-0.2l10-12.7c0.4-0.5,0.3-1.2-0.2-1.6l-6.3-5C344.6,99.9,331.2,95,317.6,95
			c-13.6,0-27,4.9-38.7,14.1l-6.3,5c-0.5,0.4-0.6,1.1-0.2,1.6l10,12.7c0.4,0.5,1.1,0.6,1.6,0.2l6.3-5c8.4-6.6,17.9-10.2,27.3-10.2
			s18.9,3.5,27.3,10.2L351.2,128.5z"/>
		<path class="st4" d="M293.8,143l-10-12.7c-0.4-0.5-1.1-0.6-1.6-0.2l-6.9,5.5c-7.6,6-17,9.3-26.7,9.3c-9.6,0-19.1-3.3-26.7-9.3
			l-6.9-5.5c-0.5-0.4-1.2-0.3-1.6,0.2l-10,12.7c-0.4,0.5-0.3,1.2,0.2,1.6l6.3,5c11.7,9.2,25.1,14.1,38.7,14.1
			c13.6,0,27-4.9,38.7-14.1l6.3-5C294.1,144.2,294.2,143.5,293.8,143z"/>
	</g>
</g>
</svg>
