<?xml version="1.0" encoding="utf-8"?>
<!-- Generator: Adobe Illustrator 27.8.0, SVG Export Plug-In . SVG Version: 6.00 Build 0)  -->
<svg version="1.1" id="Layer_1" xmlns="http://www.w3.org/2000/svg" xmlns:xlink="http://www.w3.org/1999/xlink" x="0px" y="0px"
	 viewBox="0 0 775 121.7" style="enable-background:new 0 0 775 121.7;" xml:space="preserve">
<style type="text/css">
	.st0{fill:#FFFFFF;}
</style>
<g id="Group_9" transform="translate(0 0)">
	<g>
		<g id="Group_8" transform="translate(0 0)">
			<path id="Path_5" class="st0" d="M159.1,4.7c-1.5,3.8-2.8,7.8-3.9,11.8c-1,3.9-2.2,8.8-3.5,14.7l-47.1,0.9l0.7,4.3h52.1
				l-5.3,23.8h-44.3l0,4.1h44.8l-5.3,23.8h-42.2l-0.8,3.5c-2,9.1-6.5,16-13.4,20.8c-6.9,4.8-16,7.2-27.3,7.2c-9.1,0-22.4-0.7-40.1-2
				l-3.3-0.2c1.3-5,2-10.1,2.2-15.3c0.1-4.8-0.6-9.5-2.1-14.1c18.4,3.2,30.8,4.7,37.3,4.7c3.6,0,6.2-0.4,7.9-1.1
				c1.6-0.7,2.9-2,3.5-3.6H1l5.3-23.8h66.9l0.1-4.1H8.6l5.3-23.8h58.4l-0.7-3.7L25,33.6c1.1-4.8,2-9.7,2.5-14.7
				c0.3-4-0.1-8-1.4-11.8c4.9,0.1,12.2,0.2,22.1,0.2C83.1,7.3,120.1,6.5,159.1,4.7 M160.3,3.8l-1.3,0.1C120.3,5.6,83,6.5,48.2,6.5
				c-9.9,0-17.3-0.1-22.1-0.2l-1.2,0l0.3,1.1c1.2,3.7,1.7,7.6,1.3,11.4c-0.5,4.9-1.3,9.8-2.5,14.6l-0.2,1l1,0l45.8-0.9l0.4,2h-58
				L13,36.2L7.8,60l-0.2,1h65l-0.1,2.5H5.6l-0.1,0.6L0.2,88L0,89h19.8c1.3,4.3,1.9,8.7,1.9,13.2c-0.2,5.1-0.9,10.2-2.1,15.1l-0.2,1
				l1,0l3.3,0.2c17.5,1.3,31,2,40.1,2c11.4,0,20.8-2.5,27.8-7.3c7.1-4.9,11.7-12,13.7-21.3l0.6-2.9h42.2l0.1-0.6l5.3-23.8l0.2-1h-45
				V61h44.2l0.1-0.6l5.3-23.8l0.2-1h-52.4l-0.5-2.6l46.2-0.9l0.6,0l0.1-0.6c1.3-5.9,2.5-10.8,3.5-14.6c1-4,2.3-7.9,3.9-11.7
				L160.3,3.8z M30.4,89h37.4c-0.6,0.9-1.5,1.6-2.5,2c-1.6,0.7-4.1,1.1-7.6,1.1C52.5,92.1,43.4,91,30.4,89"/>
			<path id="Path_6" class="st0" d="M262.4,2.6c-1.4,3.5-3.1,7-5,10.2h7.6c1.5-3.1,2.8-6.2,3.9-9.5l31.9,3.5l-3.1,6h11.5L305,32.1
				h-24.9l0.3,2.9h31.9L308,54.2h-16.8c4.5,3,10.9,5,19,6.1c-2.9,4.7-5.5,9.5-7.7,14.6c-2,4.6-4.3,10.5-7,17.5
				c-5.9-2.2-11.5-5-16.8-8.4l-2.1,9.5h-12.7c3.7,1.2,9.3,2.6,16.9,4.3l3.5,0.8l-2.8,5c-1.6,3.1-3.4,6.1-5.4,9
				c-1.5,2.1-3.5,3.7-5.7,4.9c-2.9,1.3-6.1,2-9.3,1.8c-21.8,0-38.3,0-49.4,0.1s-16.9,0.1-17.1,0.1c-7.2,0-12.6-0.4-15.9-1.1
				c-3.4-0.8-5.6-2.4-6.7-4.8c-1.1-2.4-1.1-6.3,0.1-11.5l3.2-14.7c-5.3,2-11.7,4.2-19.2,6.6c0.3-11.2-0.3-22.5-1.7-33.6
				c7.9-0.7,14.2-1.5,18.9-2.4c4.3-0.8,8.6-2,12.6-3.7H161l4.2-19.3h45.8l2.5-2.9h-39.7l4.2-19.3h11.5l-0.5-6l33.5-3.5
				c-0.3,3.1-0.4,6.3-0.3,9.5h3.5c1.7-3.3,3.2-6.7,4.3-10.2H262.4z M242.4,35h8.1l-0.1-2.9h-5.8L242.4,35 M220.4,57.5h35.5l-1.3-3.2
				h-30.4l-0.7,0.6L220.4,57.5 M246.3,74.4h-46.6c-1.4,1-3.1,2.1-4.8,3.2h50.7L246.3,74.4 M248.2,93.5h-39.6c-0.4,1.7-0.4,2.8,0,3.1
				c0.5,0.3,1.1,0.5,1.8,0.4c0.1,0,0.3,0,0.4,0c1.1-0.1,2-0.1,2.8-0.1h30.7c0.8,0.1,1.7-0.2,2.3-0.8
				C247.3,95.4,247.8,94.5,248.2,93.5 M263.6,1.8h-34.2l-0.2,0.6c-1,3.3-2.3,6.6-4,9.7H223c-0.1-2.9,0-5.7,0.3-8.6l0.1-1l-1,0.1
				L189,6.1l-0.8,0.1l0.1,0.8l0.4,5.1h-11.2l-0.1,0.6L173,31.9l-0.2,1h39l-1.1,1.3h-46.1l-0.1,0.6l-4.2,19.3l-0.2,1h21.3
				c-2.7,0.9-5.5,1.6-8.3,2.1c-4.6,0.9-11,1.7-18.8,2.4l-0.8,0.1l0.1,0.8c1.5,11.1,2,22.3,1.7,33.5l0,1.2l1.1-0.4
				c6.8-2.1,12.8-4.2,17.8-6l-2.9,13.2c-1.2,5.4-1.2,9.3,0,12c1.2,2.7,3.7,4.5,7.3,5.3c3.4,0.8,8.9,1.2,16.1,1.2
				c0.2,0,5.9,0,17.1-0.1c11.1-0.1,27.8-0.1,49.4-0.1c3.3,0.1,6.7-0.5,9.7-1.9c2.4-1.2,4.5-3,6-5.1c2-2.9,3.8-6,5.4-9.1l2.8-5l0.5-1
				l-1.1-0.2L281,97c-4.4-0.9-8.2-1.8-11.3-2.6h7.5l0.1-0.6l1.8-8.3c5.1,3.1,10.4,5.7,15.9,7.8l0.8,0.3l0.3-0.8c2.7-7,5-12.9,7-17.5
				c2.2-5,4.8-9.9,7.7-14.5l0.7-1.1l-1.3-0.2c-5.5-0.6-10.9-2.1-16-4.5h14.4l0.1-0.6l4.2-19.3l0.2-1h-32.2l-0.1-1.3h24.7l0.1-0.6
				L310,13l0.2-1h-11.1l2.5-4.8l0.6-1.1L301,6.1l-31.9-3.5l-0.7-0.1l-0.2,0.6c-1,3-2.3,6-3.7,8.9h-5.7c1.7-2.9,3.1-6,4.4-9.1
				L263.6,1.8z M245,32.9h4.6l0.1,1.3h-5.6L245,32.9z M224.4,55.1H254l0.6,1.6h-32l1.3-1.1L224.4,55.1z M199.9,75.2h45.3l-0.3,1.6
				h-47.3C198.4,76.3,199.2,75.7,199.9,75.2 M209.3,94.3h37.6c-0.2,0.4-0.5,0.8-0.8,1.2c-0.5,0.4-1.1,0.6-1.7,0.5h-30.7
				c-0.8,0-1.8,0-2.9,0.1c-0.1,0-0.3,0-0.4,0c-0.4,0-0.8,0-1.2-0.2C209.1,95.4,209.1,94.9,209.3,94.3"/>
			<path id="Path_7" class="st0" d="M424,0.9c0,1.7,0.1,3.8,0.3,6.3c11-0.8,23.2-2,36.5-3.5l-3.1,23.7c-6.8,0.7-16.7,1.7-29.8,2.9
				l1.1,3.2c15.7-1.2,27.3-2.2,34.9-3.1l-3.6,20.9l-22.3,1.8c4.3,7,9.1,13.6,14.4,19.9l-17.2,13.6c3.1-0.2,5.5-0.4,7.3-0.6
				c-3.5,5.1-6.4,10.5-8.6,16.3c-2.3,5.6-4.2,11.3-5.6,17.2c-18,0.7-37.1,1.1-57.4,1.1c-19.5,0-34.4-2.8-44.9-8.4
				s-14.4-14.4-11.7-26.4c1.7-8.7,7.6-16.1,15.7-19.8c8.4-4.1,20.1-6.2,34.8-6.2c15.4-0.1,30.6,3.3,44.6,9.8c-3.1-4.4-6-9-8.4-13.8
				c-27.4,1.6-56.4,2.4-87.2,2.4l4.6-20.6c27.9,0,52.6-0.6,74-1.7c-0.4-1-0.7-2.1-1-3.2c-21.5,1.2-43.3,1.8-65.5,1.8l5.2-23.7
				c17.6,0,36.1-0.4,55.3-1.2c-0.1-0.6-0.2-2.2-0.4-4.9L424,0.9z M390.3,88.6c9.1,0,16.4-0.2,22-0.5c-24.1-7-40.2-10.5-48.3-10.5
				c-2-0.1-3.9,0.4-5.6,1.3c-1.2,0.6-2.1,1.6-2.5,2.8c-0.6,2.5,2.1,4.3,8,5.3C369.8,88.1,378.6,88.6,390.3,88.6 M424.8,0l-0.9,0.1
				l-38,3.8L385.1,4l0.1,0.8c0.2,1.9,0.3,3.2,0.4,4c-18.8,0.8-37.1,1.2-54.4,1.2h-0.7l-0.1,0.6l-5.2,23.7l-0.2,1h1
				c21.9,0,43.7-0.6,64.9-1.8c0.1,0.4,0.3,1,0.5,1.6c-21.1,1.1-45.6,1.6-72.9,1.6h-0.7l-0.1,0.6L313.1,58l-0.2,1h1
				c30.5,0,59.6-0.8,86.7-2.4c2,3.8,4.2,7.4,6.5,10.9c-13.3-5.7-27.7-8.7-42.2-8.6c-14.8,0-26.7,2.1-35.2,6.3
				c-8.3,3.8-14.3,11.4-16.1,20.4c-2.7,12.4,1.4,21.6,12.2,27.3c10.5,5.6,25.8,8.5,45.3,8.5c20.1,0,39.4-0.4,57.4-1.1l0.6,0l0.1-0.6
				c1.4-5.8,3.3-11.5,5.6-17.1c2.2-5.7,5.1-11.1,8.5-16.1l1-1.5l-1.8,0.2c-1.2,0.1-2.8,0.3-4.6,0.4l15.1-11.9l0.7-0.5l-0.5-0.6
				c-5-5.9-9.6-12.1-13.6-18.6l20.9-1.7l0.6-0.1l0.1-0.6l3.6-20.9l0.2-1.1l-1.1,0.1c-7.5,0.8-18.7,1.8-34.2,3L429,31
				c12.8-1.2,22.2-2.1,28.8-2.8l0.6-0.1l0.1-0.6l3.1-23.7l0.1-1l-1,0.1c-13,1.5-25,2.6-35.7,3.4c-0.1-2.1-0.2-3.9-0.2-5.4L424.8,0z
				 M390.3,87.8c-11.6,0-20.5-0.5-26.3-1.5c-4.8-0.8-6.5-2-7.1-2.9c-0.3-0.4-0.4-1-0.3-1.5c0.4-1,1.1-1.8,2.1-2.3
				c1.6-0.9,3.4-1.3,5.2-1.2c7.4,0,21.9,3.1,43.2,9.1C402.4,87.7,396.8,87.8,390.3,87.8"/>
			<path id="Path_8" class="st0" d="M569.4,2.1l-1.2,4.3h48.1l-3.4,15.3h-50.4c-0.4,1-0.8,1.9-1.2,2.6h47.1l-3.4,15.6H554l-1.6,2.9
				h59.1l-3.4,15.6h-18.6l-0.7,3.1h22l-4.2,19.1h-22l-5.6,25.4c-1,4.5-2.6,7.8-4.9,9.9c-2.2,2.1-5.4,3.4-9.5,4.1
				c-6,0.7-12.1,1-18.2,0.9h-16.7c0.8-4.3,1.1-8.7,0.9-13.1c-6.7,4.8-13.8,9.2-21.2,13c-1.9-3.4-3.9-6.7-6.1-9.9
				c-2.1-3.1-4.3-6-6.8-8.8c6.4-3.4,12.9-7,19.3-10.8c5.4-3.2,10.6-6.7,15.5-10.5h-7.6c-13.8,12.6-32.6,25.2-56.4,37.6l-2.3-4.9
				c-2.3-5-4.2-9-6-12.1c-1.6-2.9-3.6-5.5-6-7.8c9.5-3.6,18.7-7.9,27.6-12.8h-18.8l4.2-19.1h38.4l0.2-0.3c1.1-1.2,1.8-2.1,2.3-2.8
				h-36.8l3.4-15.6h44.5l1.6-2.9h-38l3.4-15.6h42l1-2.6h-46.5l3.4-15.3H533l0.9-4.3L569.4,2.1z M557.7,58.4h-14.5l-2.2,3.1h16
				L557.7,58.4 M552.8,80.5h-19.7l11.3,15.3c1.3,0.1,2.6-0.1,3.8-0.4c0.5-0.1,1-0.5,1.3-0.9c0.3-0.8,0.5-1.6,0.7-2.4L552.8,80.5
				 M570.5,1.3h-37.2L533.1,2l-0.8,3.6h-47.8l-0.1,0.6L481,21.5l-0.2,1H527l-0.4,0.9h-42.1l-0.1,0.6l-3.4,15.6l-0.2,1h37.7l-0.7,1.3
				h-44.6l-0.1,0.6l-3.4,15.6l-0.2,1h36.1c-0.3,0.4-0.7,0.9-1.2,1.4l0,0h-38.6l-0.1,0.6l-4.2,19.1l-0.2,1h16.6
				c-8,4.2-16.3,8-24.7,11.2l-1.2,0.5l0.9,0.9c2.3,2.2,4.3,4.8,5.8,7.6c1.7,3,3.7,7.1,5.9,12l2.3,4.9l0.4,0.8l0.8-0.4
				c10.3-5.4,19.8-10.8,28.3-16.3c2.4,2.7,4.6,5.6,6.7,8.6c2.2,3.2,4.2,6.4,6,9.8l0.4,0.7l0.7-0.4c7-3.6,13.7-7.7,20.1-12.2
				c0.1,3.8-0.3,7.7-1,11.4l-0.2,1h17.6c6.1,0.1,12.2-0.2,18.3-0.9c4.2-0.6,7.5-2.1,9.9-4.3c2.4-2.2,4.1-5.7,5.1-10.3l5.5-24.7h22
				l0.1-0.6l4.2-19.1l0.2-1h-22l0.3-1.4h18.6l0.1-0.6l3.4-15.6l0.2-1h-58.8l0.7-1.3h51.1l0.1-0.6l3.4-15.6l0.2-1h-46.8
				c0.1-0.3,0.3-0.6,0.4-0.9h50.5l0.1-0.6L617,6.6l0.2-1h-48.1l0.9-3.2L570.5,1.3z M543.6,59.2h13.1l-0.3,1.4h-13.8L543.6,59.2z
				 M534.7,81.3h17L549.5,92c-0.1,0.7-0.3,1.5-0.6,2.2c0,0-0.1,0.2-0.9,0.5c-1,0.3-2.1,0.4-3.1,0.3L534.7,81.3z M524.3,81.3h4.9
				c-3.6,2.7-8.2,5.8-13.6,9c-3.3,2-6.6,3.9-10,5.8C512.1,91.6,518.4,86.7,524.3,81.3"/>
			<path id="Path_9" class="st0" d="M774,4.9l-21.1,95.5c-1.2,5.4-3.3,9.4-6.2,11.9c-3,2.5-7.2,4.2-12.7,5
				c-5.5,0.8-13.6,1.2-24.3,1.2l-35.6-0.2c0.6-3.5,0.9-6.5,1.1-9c0.2-2.5,0-5-0.3-7.5h-20.8l-0.9,4.3h-35l11.2-50.7h93.4L715,90.9
				c1.3-0.1,2.6-0.6,3.7-1.5c0.7-0.7,1.2-1.7,1.4-2.7L732.7,29H629.1l5.3-24.1L774,4.9z M685.4,74.6h-25.2l-1.1,5h25.2L685.4,74.6
				 M728.4,31.9l-4.4,20h-95.7l4.4-20L728.4,31.9 M775,4.1H633.8l-0.1,0.6l-5.3,24.1l-0.2,1h103.6l-12.5,56.8
				c-0.2,0.8-0.5,1.6-1.1,2.3c-0.6,0.5-1.3,0.8-2,1l7.5-34.2l0.2-1h-95.1l-0.1,0.6L617.4,106l-0.2,1h36.7l0.1-0.6l0.8-3.6h19.4
				c0.3,2.2,0.4,4.4,0.2,6.6c-0.2,2.5-0.5,5.5-1.1,8.9l-0.2,1h1l35.6,0.2c10.7,0,18.9-0.4,24.4-1.2c5.6-0.8,10-2.6,13.1-5.2
				c3.1-2.7,5.3-6.8,6.5-12.4l21.1-95.5L775,4.1z M660.9,75.4h23.5l-0.8,3.4h-23.5L660.9,75.4z M729.5,31.1h-97.3l-0.1,0.6l-4.4,20
				l-0.2,1h97.3l0.1-0.6l4.4-20L729.5,31.1z"/>
		</g>
	</g>
</g>
</svg>
