<?xml version="1.0" encoding="utf-8"?>
<!-- Generator: Adobe Illustrator 27.8.0, SVG Export Plug-In . SVG Version: 6.00 Build 0)  -->
<svg version="1.1" id="Layer_1" xmlns="http://www.w3.org/2000/svg" xmlns:xlink="http://www.w3.org/1999/xlink" x="0px" y="0px"
	 viewBox="0 0 470.2 73.8" style="enable-background:new 0 0 470.2 73.8;" xml:space="preserve">
<style type="text/css">
	.st0{fill:#FFFFFF;}
	.st1{fill:#26225B;stroke:#FFFFFF;stroke-miterlimit:10;}
	.st2{fill:#ED408E;}
	.st3{fill:none;}
</style>
<g>
	<g>
		<path class="st0" d="M96.5,2.9c-1,2.4-1.8,4.8-2.4,7.1c-0.6,2.3-1.3,5.3-2.1,8.9l-28.6,0.6l0.4,2.6h31.6l-3.2,14.5H65.5l0,2.5
			h27.2l-3.2,14.5H63.8l-0.5,2.1c-1.2,5.5-3.9,9.7-8.1,12.6c-4.2,2.9-9.7,4.4-16.6,4.4c-5.5,0-13.6-0.4-24.3-1.2l-2-0.1
			c0.8-3.4,1.2-6.5,1.3-9.3c0.1-2.8-0.4-5.6-1.3-8.5c11.1,1.9,18.7,2.9,22.6,2.9c2.2,0,3.8-0.2,4.8-0.7c1-0.5,1.7-1.2,2.1-2.2H0.6
			L3.8,39h40.6l0.1-2.5H5.2l3.2-14.5h35.4l-0.4-2.2l-28.2,0.6c0.8-3.6,1.3-6.6,1.5-8.9c0.2-2.3-0.1-4.7-0.8-7.1
			c3,0.1,7.4,0.1,13.4,0.1C50.4,4.4,72.9,3.9,96.5,2.9 M97.3,2.3l-0.8,0C73,3.4,50.4,3.9,29.2,3.9c-6.1,0-10.5,0-13.4-0.1l-0.7,0
			l0.2,0.7c0.7,2.3,1,4.7,0.8,6.9c-0.2,2.3-0.7,5.3-1.5,8.8l-0.1,0.6l0.6,0L43,20.3l0.2,1.2H8.4H8L7.9,22L4.7,36.4L4.6,37h0.6H44
			l-0.1,1.5H3.8H3.4l-0.1,0.4L0.1,53.4L0,54h0.6H12c0.8,2.7,1.2,5.4,1.1,8c-0.1,2.7-0.5,5.8-1.3,9.2l-0.1,0.6l0.6,0l2,0.1
			c10.6,0.8,18.8,1.2,24.3,1.2c6.9,0,12.6-1.5,16.9-4.4c4.3-3,7.1-7.3,8.3-12.9l0.4-1.7h25.2h0.4l0.1-0.4l3.2-14.5l0.1-0.6h-0.6H66
			l0-1.5h26.4h0.4l0.1-0.4L96,22.2l0.1-0.6h-0.6H64.3L64.1,20l28-0.5l0.4,0l0.1-0.4c0.8-3.6,1.5-6.6,2.1-8.9C95.2,7.8,96,5.4,97,3.1
			L97.3,2.3L97.3,2.3z M18.5,54h22.7c-0.4,0.5-0.9,0.9-1.5,1.2c-1,0.4-2.5,0.7-4.6,0.7C31.9,55.9,26.3,55.2,18.5,54L18.5,54z"/>
		<path class="st0" d="M159.2,1.6c-0.8,2.1-1.8,4.2-3,6.2h4.6c0.9-1.8,1.7-3.7,2.4-5.7l19.4,2.1l-1.9,3.6h7L185,19.5h-15.1l0.2,1.8
			h19.4l-2.6,11.7h-10.2c2.8,1.8,6.6,3,11.5,3.7c-1.9,3.1-3.5,6-4.7,8.9c-1.2,2.8-2.6,6.4-4.2,10.6c-3.8-1.5-7.2-3.2-10.2-5.1
			l-1.3,5.7h-7.7c2.2,0.7,5.7,1.6,10.3,2.6l2.1,0.5l-1.7,3.1c-1.3,2.4-2.4,4.2-3.2,5.5c-0.9,1.2-2.1,2.2-3.5,3
			c-1.4,0.7-3.3,1.1-5.7,1.1c-13.2,0-23.2,0-30,0c-6.8,0-10.2,0-10.3,0c-4.4,0-7.6-0.2-9.7-0.7c-2.1-0.5-3.4-1.4-4.1-2.9
			c-0.7-1.5-0.6-3.8,0.1-7l2-8.9c-3.2,1.2-7.1,2.6-11.6,4c0.2-5.8-0.1-12.6-1.1-20.4c4.8-0.4,8.6-0.9,11.4-1.4
			c2.8-0.5,5.4-1.3,7.6-2.3h-15l2.6-11.7h27.8l1.5-1.8h-24.1L108,7.8h7l-0.3-3.6L135,2c-0.2,2-0.3,4-0.2,5.7h2.1
			c1.1-2,1.9-4,2.6-6.2H159.2 M147.1,21.2h4.9l-0.1-1.8h-3.5L147.1,21.2 M133.7,34.9h21.5l-0.8-1.9H136l-0.5,0.4L133.7,34.9
			 M149.4,45.1h-28.3c-0.9,0.6-1.9,1.3-2.9,1.9H149L149.4,45.1 M150.5,56.7h-24c-0.2,1.1-0.2,1.7,0,1.9c0.2,0.2,0.6,0.2,1.1,0.2
			c0.1,0,0.2,0,0.3,0c0.7,0,1.2,0,1.7,0h18.6c0.6,0,1.1-0.2,1.4-0.5C150,58,150.3,57.5,150.5,56.7 M159.9,1.1h-0.7h-19.7h-0.4
			l-0.1,0.4c-0.6,2-1.4,4-2.4,5.9h-1.4c-0.1-1.6,0-3.4,0.2-5.2l0.1-0.6l-0.6,0.1l-20.3,2.1l-0.5,0.1l0,0.5l0.3,3.1H108h-0.4
			l-0.1,0.4L105,19.4l-0.1,0.6h0.6h23l-0.6,0.8h-27.6h-0.4l-0.1,0.4l-2.6,11.7l-0.1,0.6h0.6H110c-1.6,0.5-3.2,0.9-5,1.3
			c-2.8,0.5-6.7,1-11.4,1.4l-0.5,0l0.1,0.5c0.9,7.7,1.3,14.6,1.1,20.3l0,0.7l0.7-0.2c4.1-1.3,7.7-2.5,10.8-3.7l-1.8,8
			c-0.7,3.3-0.7,5.7,0,7.3c0.7,1.6,2.2,2.7,4.4,3.2c2.1,0.5,5.4,0.7,9.8,0.7c0.1,0,3.6,0,10.3,0c6.7,0,16.8,0,30,0
			c2.4,0,4.4-0.4,5.9-1.2c1.5-0.8,2.7-1.8,3.7-3.1c0.9-1.3,2-3.1,3.3-5.5l1.7-3.1l0.3-0.6l-0.7-0.1l-2.1-0.5c-2.7-0.6-5-1.1-6.9-1.6
			h4.2h0.4l0.1-0.4l1.1-5.1c2.8,1.8,6.1,3.4,9.7,4.8l0.5,0.2l0.2-0.5c1.6-4.2,3-7.8,4.2-10.6c1.2-2.8,2.8-5.7,4.7-8.8l0.4-0.7
			l-0.8-0.1c-3.9-0.5-7.2-1.5-9.7-2.7h8.3h0.4l0.1-0.4l2.6-11.7l0.1-0.6h-0.6h-18.9l-0.1-0.8H185h0.4l0.1-0.4l2.6-11.7l0.1-0.6h-0.6
			h-6.1l1.5-2.9l0.3-0.7l-0.7-0.1l-19.4-2.1l-0.4,0l-0.1,0.4c-0.7,1.9-1.4,3.7-2.2,5.4H157c1-1.8,1.9-3.7,2.6-5.5L159.9,1.1
			L159.9,1.1z M148.6,20h2.8l0,0.8h-3.4L148.6,20L148.6,20z M136.1,33.4h17.9l0.4,0.9H135l0.8-0.7L136.1,33.4L136.1,33.4z
			 M121.3,45.6h27.5l-0.2,0.9h-28.7C120.4,46.3,120.8,45.9,121.3,45.6L121.3,45.6z M126.9,57.2h22.8c-0.2,0.4-0.4,0.6-0.5,0.7
			c-0.2,0.2-0.6,0.3-1,0.3h-18.6c-0.5,0-1.1,0-1.7,0c-0.1,0-0.2,0-0.3,0c-0.5,0-0.7-0.1-0.7-0.1C126.9,58.1,126.8,57.9,126.9,57.2
			L126.9,57.2z"/>
		<path class="st0" d="M257.2,0.6c0,1.1,0.1,2.3,0.2,3.8c6.7-0.5,14-1.2,22.2-2.1l-1.9,14.4c-4.1,0.4-10.1,1-18.1,1.8l0.7,1.9
			c9.5-0.7,16.6-1.4,21.2-1.9l-2.2,12.7l-13.5,1.1c2.3,3.8,5.2,7.8,8.7,12.1l-10.4,8.3c1.9-0.1,3.4-0.2,4.4-0.4
			c-2,2.8-3.7,6.1-5.2,9.9c-1.5,3.7-2.6,7.2-3.4,10.4c-10.9,0.4-22.5,0.6-34.8,0.6c-11.8,0-20.9-1.7-27.2-5.1
			c-6.4-3.4-8.7-8.7-7.1-16c1.2-5.5,4.4-9.5,9.5-12c5.1-2.5,12.2-3.8,21.1-3.8c9.5,0,18.5,2,27.1,5.9c-2-2.8-3.7-5.6-5.1-8.3
			c-16.6,1-34.2,1.5-52.9,1.5l2.8-12.5c16.9,0,31.9-0.3,44.9-1c-0.3-0.9-0.5-1.5-0.6-1.9c-13,0.7-26.3,1.1-39.7,1.1l3.2-14.4
			c10.7,0,21.9-0.2,33.5-0.7c0-0.4-0.1-1.4-0.3-3L257.2,0.6 M236.8,53.8c5.5,0,9.9-0.1,13.3-0.3c-14.6-4.3-24.4-6.4-29.3-6.4
			c-1.4,0-2.6,0.3-3.4,0.8c-0.9,0.5-1.4,1.1-1.5,1.7c-0.3,1.5,1.3,2.6,4.8,3.2C224.3,53.5,229.7,53.8,236.8,53.8 M257.7,0l-0.5,0.1
			l-23,2.3l-0.5,0l0,0.5c0.1,1.1,0.2,1.9,0.2,2.4c-11.4,0.5-22.5,0.7-33,0.7h-0.4l-0.1,0.4l-3.2,14.4l-0.1,0.6h0.6
			c13.3,0,26.5-0.4,39.3-1.1c0.1,0.3,0.2,0.6,0.3,1c-12.8,0.7-27.6,1-44.2,1h-0.4l-0.1,0.4l-2.8,12.5l-0.1,0.6h0.6
			c18.5,0,36.2-0.5,52.6-1.5c1.1,2.2,2.5,4.4,4,6.6c-8.1-3.5-16.7-5.2-25.6-5.2c-9,0-16.2,1.3-21.4,3.8c-5.2,2.6-8.5,6.7-9.8,12.3
			c-1.7,7.5,0.8,13.1,7.4,16.6c6.4,3.4,15.6,5.2,27.5,5.2c12.2,0,23.9-0.2,34.8-0.6l0.4,0l0.1-0.4c0.8-3.2,1.9-6.7,3.4-10.4
			c1.5-3.7,3.2-7,5.2-9.8l0.6-0.9l-1.1,0.1c-0.7,0.1-1.7,0.2-2.8,0.3l9.2-7.2l0.4-0.3l-0.3-0.4c-3.3-4-6.1-7.8-8.3-11.3l12.7-1
			l0.4,0l0.1-0.4l2.2-12.7l0.1-0.7l-0.7,0.1c-4.5,0.5-11.3,1.1-20.8,1.8l-0.3-1c7.8-0.7,13.5-1.3,17.5-1.7l0.4,0l0.1-0.4l1.9-14.4
			l0.1-0.6l-0.6,0.1c-7.9,0.9-15.2,1.6-21.6,2.1c-0.1-1.3-0.1-2.4-0.1-3.3L257.7,0L257.7,0z M236.8,53.3c-7,0-12.4-0.3-15.9-0.9
			c-2.9-0.5-3.9-1.2-4.3-1.7c-0.2-0.3-0.2-0.6-0.2-0.9c0.1-0.5,0.5-0.9,1.3-1.4c0.8-0.5,1.8-0.7,3.2-0.7c4.5,0,13.3,1.9,26.2,5.5
			C244.1,53.2,240.7,53.3,236.8,53.3L236.8,53.3z"/>
		<path class="st0" d="M345.4,1.3l-0.8,2.6h29.2l-2,9.3h-30.6c-0.3,0.6-0.5,1.1-0.7,1.6H369l-2.1,9.5h-30.9l-0.9,1.8H371l-2.1,9.5
			h-11.3l-0.4,1.9h13.3L368,48.9h-13.3l-3.4,15.4c-0.6,2.7-1.6,4.7-2.9,6c-1.4,1.3-3.3,2.1-5.7,2.5c-2.5,0.4-6.1,0.6-11,0.6h-10.1
			c0.5-3,0.7-5.6,0.6-8c-4,2.9-8.3,5.5-12.9,7.9c-1-1.8-2.2-3.8-3.7-6c-1.5-2.2-2.9-4-4.1-5.3c3.9-2,7.8-4.2,11.7-6.6
			c3.9-2.3,7-4.5,9.4-6.4h-4.6c-8.4,7.7-19.8,15.3-34.2,22.8l-1.4-3c-1.4-3-2.6-5.5-3.6-7.3c-1-1.9-2.3-3.4-3.6-4.7
			c6.8-2.7,12.4-5.3,16.7-7.8h-11.4l2.6-11.6h23.3l0.1-0.2c0.7-0.7,1.1-1.3,1.4-1.7h-22.3l2.1-9.5h27l0.9-1.8h-23.1l2.1-9.5h25.5
			l0.6-1.6h-28.2l2-9.3h29l0.6-2.6H345.4 M338.3,35.4h-8.8l-1.3,1.9h9.7L338.3,35.4 M335.4,48.9h-12l6.9,9.3c1.1,0,1.9-0.1,2.3-0.2
			c0.4-0.2,0.7-0.3,0.8-0.6c0.1-0.2,0.2-0.7,0.4-1.4L335.4,48.9 M346.1,0.8h-0.7h-21.5h-0.4l-0.1,0.4l-0.5,2.2h-28.6h-0.4l-0.1,0.4
			l-2,9.3l-0.1,0.6h0.6h27.4l-0.2,0.6h-25.2h-0.4l-0.1,0.4l-2.1,9.5l-0.1,0.6h0.6h22.2l-0.4,0.8h-26.7H287l-0.1,0.4l-2.1,9.5
			l-0.1,0.6h0.6h21.3c-0.2,0.2-0.4,0.5-0.7,0.8l0,0h-23h-0.4l-0.1,0.4l-2.6,11.6l-0.1,0.6h0.6h9.5c-4,2.2-9.1,4.5-15,6.8l-0.7,0.3
			l0.6,0.5c1.3,1.3,2.5,2.8,3.5,4.6c1,1.8,2.2,4.3,3.6,7.3l1.4,3l0.2,0.5l0.5-0.2c6.3-3.3,12-6.6,17.2-9.9c1.2,1.3,2.6,3.1,4,5.2
			c1.5,2.2,2.7,4.2,3.7,5.9l0.2,0.4l0.4-0.2c4.3-2.2,8.4-4.7,12.2-7.4c0.1,2.1-0.1,4.4-0.6,6.9l-0.1,0.6h0.6h10.1
			c4.9,0,8.6-0.2,11.1-0.6c2.6-0.4,4.6-1.3,6-2.6c1.4-1.3,2.5-3.4,3.1-6.2l3.3-15H368h0.4l0.1-0.4l2.6-11.6l0.1-0.6h-0.6h-12.7
			l0.2-0.9h10.9h0.4l0.1-0.4l2.1-9.5l0.1-0.6H371h-35l0.4-0.8H367h0.4l0.1-0.4l2.1-9.5l0.1-0.6H369h-27.8c0.1-0.2,0.2-0.4,0.3-0.6
			h30.3h0.4l0.1-0.4l2-9.3l0.1-0.6h-0.6h-28.5l0.6-2L346.1,0.8L346.1,0.8z M329.8,35.9h7.9l-0.2,0.9h-8.4L329.8,35.9L329.8,35.9z
			 M324.4,49.4h10.3l-1.4,6.4c-0.2,0.9-0.3,1.2-0.4,1.3c0,0-0.1,0.1-0.5,0.3c-0.2,0.1-0.8,0.2-1.9,0.2L324.4,49.4L324.4,49.4z
			 M318,49.4h3c-2.2,1.7-5,3.5-8.2,5.5c-2,1.2-4,2.4-6.1,3.5C311,55.4,314.8,52.3,318,49.4L318,49.4z"/>
		<path class="st0" d="M469.5,3l-12.8,57.9c-0.7,3.3-2,5.7-3.8,7.2c-1.8,1.5-4.4,2.6-7.7,3.1c-3.3,0.5-8.2,0.7-14.7,0.7L409,71.8
			c0.3-2.1,0.6-3.9,0.7-5.5c0.1-1.5,0-3.1-0.2-4.5h-12.6l-0.6,2.6H375l6.8-30.8h56.6l-4.7,21.5c1.1-0.2,1.8-0.5,2.2-0.9
			c0.4-0.4,0.7-0.9,0.8-1.6l7.7-35h-62.9L384.9,3H469.5 M415.8,45.2h-15.3l-0.7,3.1h15.3L415.8,45.2 M441.9,19.4l-2.7,12.1h-58
			l2.7-12.1H441.9 M470.2,2.5h-0.6h-84.6h-0.4l-0.1,0.4l-3.2,14.6l-0.1,0.6h0.6h62.2l-7.6,34.4c-0.1,0.6-0.4,1-0.7,1.4
			c-0.2,0.2-0.5,0.4-1.2,0.6l4.6-20.7l0.1-0.6h-0.6h-56.6h-0.4l-0.1,0.4l-6.8,30.8l-0.1,0.6h0.6h21.2h0.4l0.1-0.4l0.5-2.2H409
			c0.2,1.3,0.2,2.7,0.1,4c-0.1,1.5-0.3,3.4-0.6,5.4l-0.1,0.6l0.6,0l21.6,0.1c6.5,0,11.5-0.3,14.8-0.7c3.4-0.5,6.1-1.6,7.9-3.2
			c1.9-1.6,3.2-4.1,3.9-7.5L470,3.1L470.2,2.5L470.2,2.5z M400.9,45.7h14.3l-0.5,2.1h-14.3L400.9,45.7L400.9,45.7z M442.5,18.9h-0.6
			h-58h-0.4l-0.1,0.4l-2.7,12.1l-0.1,0.6h0.6h58h0.4l0.1-0.4l2.7-12.1L442.5,18.9L442.5,18.9z"/>
	</g>
</g>
</svg>
