<?xml version="1.0" encoding="utf-8"?>
<!-- Generator: Adobe Illustrator 27.8.0, SVG Export Plug-In . SVG Version: 6.00 Build 0)  -->
<svg version="1.1" id="图层_1" xmlns="http://www.w3.org/2000/svg" xmlns:xlink="http://www.w3.org/1999/xlink" x="0px" y="0px"
	 viewBox="0 0 645.2 169.9" style="enable-background:new 0 0 645.2 169.9;" xml:space="preserve">
<style type="text/css">
	.st0{fill:#FFFFFF;}
</style>
<g>
	<path class="st0" d="M345.6,50.7c0.2,1.4,0.1,2.7,0.1,4c0,1.3,0,2.7,0,4s0,2.7,0,4c0,1.3,0,2.6,0,3.9c0,1.3,0,2.7,0,4
		c0,1.3,0,2.7,0,3.9c0.4,0.2,0.7,0.1,1,0.1c8-1.4,16-2.8,24-4.2c0.2-0.6,0.1-1.1,0.1-1.6c0-6.9,0-13.7,0-20.6c0-0.2,0-0.5,0-0.7
		c0-1.1-0.2-1.2,1.2-1.4c3.5-0.6,7-1.2,10.6-1.9c0.7-0.1,0.7-0.1,0.7,0.6c0,0.3,0,0.7,0,1c0,19.2,0,38.4,0,57.6c0,0.4,0,0.9,0,1.3
		c0,0.3-0.2,0.5-0.5,0.5c-2.1,0.4-4.1,0.7-6.2,1.1c-1.5,0.3-3,0.5-4.5,0.8c-0.4,0.1-0.8,0.1-1.2,0.1c-0.2-1.2-0.1-2.3-0.1-3.4
		c0-1.2,0-2.4,0-3.6c0-1.1,0-2.3,0-3.4c0-1.2,0-2.4,0-3.6c0-1.1,0-2.3,0-3.4c0-1.2,0-2.4,0-3.6c0-1.1,0-2.3,0-3.5
		c-1.3,0.1-2.5,0.4-3.7,0.6c-4.7,0.8-9.5,1.7-14.2,2.5c-2.2,0.4-4.3,0.8-6.5,1.1c-0.6,0.1-0.7,0.2-0.7,0.8c0,0.3,0,0.7,0,1
		c0,7.1,0,14.3,0,21.4c0,0.5,0,0.9,0,1.4c-0.8,0.4-1.7,0.4-2.5,0.6c-2.9,0.5-5.8,1-8.7,1.6c-0.2,0-0.5,0.1-0.7,0.1
		c-0.4,0-0.5-0.1-0.5-0.5c0-0.4,0-0.8,0-1.1c0-19.2,0-38.4,0-57.6c0-1.8-0.4-1.7,1.7-2c3.4-0.6,6.8-1.2,10.1-1.8
		C345.2,50.8,345.3,50.8,345.6,50.7z"/>
	<path class="st0" d="M215.8,85.5c0,4.1,0,8.1,0,12.1c0.3,0.3,0.6,0.1,0.8,0.1c4.7-0.8,9.5-1.7,14.2-2.5c2.5-0.4,5.1-0.9,7.6-1.4
		c0.3-0.1,0.6-0.1,0.8-0.1c0.6-0.1,0.6,0,0.7,0.6c0,0.1,0,0.3,0,0.4c0,3.2,0,6.5,0,9.7c0,0.1,0,0.3,0,0.4c0,0.4-0.1,0.6-0.5,0.7
		c-0.8,0.1-1.6,0.3-2.4,0.5c-6.7,1.2-13.4,2.3-20.1,3.5c-0.2,0-0.5,0.1-0.7,0.2c-0.3,0.1-0.4,0.3-0.4,0.6c0,4,0,8.1,0,12.1
		c0,0,0,0.1,0.1,0.2c1.7-0.1,3.5-0.6,5.3-0.9c1.8-0.3,3.7-0.6,5.5-0.9c1.8-0.3,3.6-0.6,5.3-1c1.8-0.3,3.7-0.6,5.5-1
		c1.8-0.3,3.6-0.6,5.3-0.9c0.2,0.3,0.2,0.5,0.2,0.8c0,3.4,0,6.9,0,10.3c0,0.7-0.1,0.8-0.8,0.9c-2.9,0.5-5.7,1-8.6,1.5
		c-4.1,0.7-8.2,1.4-12.2,2.2c-4,0.7-8.1,1.4-12.1,2.1c-1.4,0.2-2.8,0.5-4.2,0.7c-0.5,0.1-1,0.1-1.5,0.2c-0.2-0.2-0.2-0.4-0.2-0.6
		c0-0.4,0-0.9,0-1.3c0-19.1,0-38.2,0-57.3c0-1.9-0.4-1.7,1.7-2.1c5.1-0.9,10.2-1.8,15.3-2.7c4.6-0.8,9.2-1.6,13.8-2.4
		c2.4-0.4,4.8-0.9,7.2-1.3c0.4-0.1,0.7-0.1,1.1-0.2c0.3,0.3,0.2,0.6,0.2,0.8c0,3.3,0,6.7,0,10c0,0.2,0,0.4,0,0.6
		c0,0.3-0.1,0.4-0.4,0.5c-0.2,0-0.4,0.1-0.6,0.1c-5.3,0.9-10.5,1.9-15.8,2.8c-3,0.5-5.9,1-8.9,1.5C216.7,85.3,216.3,85.4,215.8,85.5
		z"/>
	<path class="st0" d="M33.9,124.3c-0.2-0.5-0.3-1-0.5-1.4c-1.4-3.9-4.4-5.1-7-5.2c-2.8-0.1-5.5,0.5-7.9,2.1c-1.4,1-2.6,2.2-3.4,3.8
		c-1.7,3.7,0.3,7.2,4.3,7.6c0.6,0.1,1.2,0.1,1.9,0.1c3.1,0.1,6.3,0.1,9.4,0.2c2.3,0.1,4.4,0.5,6.5,1.4c5.5,2.3,8.4,6.4,8.8,12.2
		c0.3,3.6-0.5,7-2.2,10.2c-2.4,4.7-6,8.2-10.6,10.7c-3.4,1.9-7,2.9-10.8,3.5c-2.2,0.3-4.4,0.4-6.6,0.3c-2.3-0.1-4.4-0.6-6.5-1.5
		c-3.4-1.5-5.8-3.9-7.5-7.1c-1-1.9-1.6-3.9-2-5.9c-0.1-0.3-0.1-0.7,0.4-0.8c3.7-1.5,7.4-3.1,11-4.6c0.4,0.2,0.3,0.5,0.4,0.8
		c0.1,0.4,0.2,0.7,0.3,1.1c1.1,3.2,3.3,5.3,6.7,6c3.5,0.8,6.8,0.2,10-1.4c1.5-0.8,2.8-1.9,3.7-3.3c0.6-1,1-2.1,1.1-3.4
		c0.1-1.8-0.7-3.2-2.2-4.2c-1.1-0.7-2.3-1.1-3.6-1.1c-2.3-0.1-4.7-0.2-7-0.2c-1.8,0-3.6,0-5.4-0.3c-2.2-0.3-4.3-0.9-6.2-2
		c-4-2.2-6.2-5.7-6.7-10.2c-0.6-4.9,0.6-9.5,3.4-13.5c4.1-6.1,9.9-9.9,17.1-11.5c2.5-0.5,5.1-0.7,7.7-0.5c2.3,0.1,4.4,0.6,6.5,1.6
		c4.5,2.2,7.2,5.8,8.2,10.7c0.1,0.4,0,0.6-0.4,0.8c-0.6,0.3-1.3,0.6-1.9,0.9c-2.5,1.2-5,2.4-7.5,3.6
		C34.9,123.9,34.4,124.1,33.9,124.3z"/>
	<path class="st0" d="M79.7,97.6c0.2,0.6,0.1,1,0.1,1.5c0,11.4,0,22.8,0,34.2c0,1.5,0,3,0.3,4.6c0.3,1.3,0.7,2.5,1.3,3.6
		c1.3,2.2,3.2,3.5,5.7,3.9c7.2,1.1,13.9-3.5,15.6-10.6c0.4-1.7,0.5-3.5,0.5-5.2c0-11.4,0-22.8,0-34.2c0-0.6-0.3-1.3,0.2-1.8
		c0.4-0.4,1.1-0.3,1.6-0.4c3.4-0.6,6.7-1.2,10.1-1.8c0.1,0,0.2,0,0.3,0c0.2,0.4,0.1,0.7,0.1,1.1c0,11.9,0,23.8,0,35.7
		c0,3.8-0.5,7.6-1.8,11.2c-2.7,7.8-8,13.2-15.7,16.1c-4,1.6-8.2,2.3-12.6,2.4c-2.3,0-4.7-0.2-6.9-1c-3.6-1.2-6.3-3.4-8.3-6.7
		c-1.3-2.2-2.1-4.7-2.6-7.2c-0.4-2.2-0.6-4.4-0.6-6.7c0-11.7,0-23.4,0-35.2c0-0.5,0-0.9,0-1.5C71.5,99,75.6,98.3,79.7,97.6z"/>
	<path class="st0" d="M420.7,37.5c0.2,0.5,0.1,0.9,0.1,1.4c0,5,0,9.9,0,14.9c0,14.3,0,28.7,0,43c0,0.5,0.2,1.1-0.1,1.5
		c-0.3,0.5-1,0.3-1.5,0.4c-3.4,0.6-6.7,1.2-10.1,1.8c-0.2,0-0.5,0-0.7,0c-0.3-0.5-0.1-1.1-0.1-1.6c0-8.7,0-17.3,0-26
		c0-10.6,0-21.1,0-31.7c0-1.8-0.3-1.6,1.6-2c3.5-0.6,6.9-1.2,10.4-1.8C420.4,37.5,420.5,37.5,420.7,37.5z"/>
	<path class="st0" d="M626.5,9c-3.3,0.5-6.5,1.2-9.8,1.7c-0.2-0.9-0.1-1.8-0.1-2.6c0-0.2,0.2-0.3,0.3-0.4c0.2-0.1,0.4-0.1,0.6-0.1
		c3.4-0.6,6.8-1.2,10.3-1.8c0.2,0,0.4-0.1,0.6-0.1c0.4-0.1,0.6-0.3,0.6-0.7c0-1.2,0-2.5,0-3.7c0-0.5,0-0.7,0.6-0.8
		c0.8-0.2,1.6-0.3,2.4-0.4c0.2,0.9,0.1,1.7,0.1,2.5c0,0.8,0,1.5,0,2.4c1.5,0,2.8-0.4,4.1-0.6c1.3-0.2,2.6-0.5,3.9-0.7
		c1.4-0.2,2.7-0.5,4.1-0.7c0.3,0.9,0.1,1.8,0.1,2.7c0,0.3-0.3,0.4-0.5,0.4c-0.7,0.1-1.4,0.3-2.1,0.4c-2.3,0.4-4.7,0.8-7,1.2
		c-0.6,0.1-0.6,0.2-0.4,0.8c0.1,0.2,0.2,0.3,0.2,0.5c1.6,3.2,3.9,5.9,6.6,8.1c1.2,1,2.6,1.8,3.9,2.6c0,0.1,0,0.2,0,0.3
		c-2.5,2.9-1.4,2.9-4.5,0.7c-3.4-2.3-6-5.4-7.9-9c-0.1-0.2-0.2-0.4-0.3-0.6c-0.1,0-0.1,0-0.2,0c0,0-0.1,0.1-0.1,0.1
		c0,3.1,0,6.2,0,9.3c0,0.2,0.1,0.4,0.1,0.6c2.1-0.4,4.3-0.7,6.4-1.1c0.3,0.9,0.1,1.8,0.1,2.7c0,0.3-0.3,0.3-0.5,0.4
		c-1.6,0.3-3.3,0.6-4.9,0.9c-0.2,0-0.5,0.1-0.7,0.1c-0.3,0.1-0.5,0.3-0.5,0.6c0,0.9,0,1.7,0,2.6c0,0.3,0,0.6,0,0.9
		c0,1.2,0.3,1.4-1.3,1.6c-0.5,0-0.9,0.2-1.4,0.2c-0.1,0-0.2,0-0.4-0.1c0-1,0-2.1,0-3.1c0-0.6,0.2-1.3-0.2-1.9
		c-0.6-0.1-1.2,0.2-1.8,0.3c-1.4,0.2-2.8,0.5-4.2,0.7c-0.3,0.1-0.4-0.1-0.5-0.3c0,0,0-0.1,0-0.1c0-0.8-0.1-1.5,0.1-2.3
		c0.7-0.4,1.4-0.4,2.2-0.5c1.3-0.2,2.5-0.4,3.8-0.7c0.6-0.1,0.7-0.2,0.7-0.8c0-3.1,0-6.2,0-9.4c-0.4,0.1-0.5,0.4-0.6,0.7
		c-2.3,5.2-5.6,9.6-9.7,13.5c-0.3,0.3-0.6,0.6-0.9,0.8c-0.5-0.1-0.8-0.6-1.1-0.9c-1.2-1.1-1.1-0.9,0-1.9c4.1-3.9,7.3-8.4,9.7-13.5
		C626.3,9.8,626.6,9.5,626.5,9z"/>
	<path class="st0" d="M618.7,40c-1.2,0.2-2.3,0.4-3.5,0.6c-0.2-0.9-0.1-1.7-0.1-2.5c1.1-0.4,8.4-1.7,10-1.8c0,0,0.1,0.1,0.1,0.1
		c0.1,0.8,0.1,1.6,0,2.4c-0.7,0.4-1.4,0.4-2.2,0.5c-0.2,0-0.4,0-0.6,0.1c-0.4,0.1-0.6,0.3-0.6,0.7c0,1.8,0,3.5,0,5.3
		c0,0.5,0.1,0.6,0.7,0.5c0.5-0.1,1-0.2,1.5-0.3c0.5-0.1,0.7,0,0.7,0.5c0,0.7,0.3,1.5-0.1,2.1c-0.4,0.6-1.3,0.4-2,0.6
		c-0.7,0.2-0.8,0.2-0.8,0.9c0,1.8,0,3.5,0,5.3c0,0.4,0.2,0.5,0.5,0.3c0.9-0.6,1.7-1.2,2.6-1.8c0.3,0.1,0.2,0.4,0.3,0.6
		c0,0.2,0,0.5,0,0.7c0.3,1.2-0.2,2-1.2,2.7c-2.4,1.7-4.7,3.3-7.2,4.9c-0.2,0.1-0.3,0.2-0.5,0.3c-0.2,0.1-0.5,0.1-0.6-0.2
		c-0.1-0.3-0.2-0.6-0.4-0.9c-0.6-1.6-0.8-1.2,0.7-2.2c0.9-0.6,1.9-1.1,2.7-1.8c0-1,0.1-2.1,0.1-3.1c0-1.4,0-2.9,0-4.3
		c0-0.2,0-0.4-0.1-0.6c-1-0.2-2,0.4-3,0.3c-0.2-0.1-0.2-0.3-0.2-0.5c0-0.7-0.3-1.5,0.1-2.1c0.4-0.5,1.3-0.4,2-0.5
		c0.2-0.1,0.5-0.1,0.7-0.1c0.2-0.1,0.3-0.2,0.3-0.4c0-0.1,0-0.2,0-0.3c0-1.8,0-3.6,0-5.4C618.8,40.3,618.8,40.2,618.7,40z"/>
	<path class="st0" d="M588,51.1c0-1,0-1.9,0-2.7c0-2.2,0-4.5,0-6.7c0-0.9,0-1,0.9-1.1c0.7-0.1,1.3-0.4,2-0.3
		c0.2,1.2,0.1,2.3,0.1,3.4c0,1.1,0,2.2,0,3.3c0,1.1,0,2.3,0,3.5c1.1-0.2,2-0.4,2.9-0.5c1.7-0.2,1.6-0.6,1.6,1.3c0,0.1,0,0.3,0,0.4
		c0,0.7,0,1-1,1.1c-1,0.1-2.1,0.4-3.1,0.5c-0.3,0.1-0.5,0.2-0.5,0.6c0,0.4,0,0.8,0,1.1c0,4.3,0,8.6,0,12.9c0,0.4,0,0.8,0,1.1
		c0,0.3-0.2,0.4-0.4,0.5c-0.8,0.2-1.6,0.3-2.4,0.4c-0.3-0.4-0.2-0.8-0.2-1.1c0-4.4,0-8.9,0-13.3c0-0.5,0.1-0.9-0.1-1.5
		c-1.2,0.1-2.4,0.4-3.6,0.6c-0.5,0.1-1,0.2-1.6,0.2c-0.2,0-0.3-0.1-0.4-0.3c0,0,0-0.1,0-0.1c0.1-0.8-0.3-1.6,0.2-2.2
		c0.4-0.5,1.3-0.4,2-0.5C585.6,51.5,586.7,51.4,588,51.1z"/>
	<path class="st0" d="M611.1,54.7c0,0.7,0.1,1.5,0.1,2.2c0,0.3-0.1,0.5-0.4,0.6c-0.6,0.2-1.3,0.5-1.9,0.7c-0.4,0.1-0.5,0.3-0.5,0.7
		c0,0.6,0,1.2,0,1.9c0,1.7,0,3.3,0,5c0,0.7-0.1,0.7-0.7,0.8c-0.7,0.1-1.4,0.4-2.1,0.3c-0.3-0.2-0.2-0.5-0.2-0.8c0-1.8,0-3.6,0-5.4
		c0-0.4,0.1-0.7-0.1-1.2c-2.5,0.7-5,1.8-7.5,2.5c-0.2-0.7-0.4-2-0.3-2.5c0-0.2,0.1-0.4,0.3-0.4c0.2-0.1,0.4-0.2,0.7-0.2
		c1.9-0.7,3.8-1.3,5.7-2c1.6-0.5,1.4-0.2,1.4-2c0-5,0-10,0-15c0-0.7,0-1.3,0-2c0.9-0.5,1.9-0.4,2.8-0.6c0.4,0.4,0.3,0.8,0.3,1.2
		c0,5,0,10.1,0,15.1c0,0.4,0,0.9,0,1.3c0,0.2,0.2,0.3,0.4,0.3c0.5-0.1,0.9-0.3,1.4-0.4C610.5,54.7,610.7,54.6,611.1,54.7z"/>
	<path class="st0" d="M445,131.8c0.3-0.6,0.2-1,0.2-1.3c0-3,0-6,0-9c0-0.3,0-0.7,0-1c0-0.5,0.1-0.6,0.6-0.7c0.5-0.1,0.9-0.1,1.4-0.2
		c0.2,0.4,0.1,0.7,0.1,1c0,4.5,0,9,0,13.6c0,0.2,0,0.5,0,0.7c0,0.2-0.2,0.4-0.4,0.4c-0.5,0.1-1,0.2-1.5,0.3c-0.2,0-0.4-0.1-0.5-0.2
		c-0.2-0.3-0.5-0.6-0.7-0.9c-2-2.7-4-5.3-6-8c-0.3-0.4-0.6-0.7-0.9-1.1c-0.4,0.1-0.3,0.4-0.3,0.6c0,3.1,0,6.3,0,9.4c0,0.3,0,0.7,0,1
		c0,0.7,0,0.7-0.7,0.8c-0.4,0.1-0.8,0.1-1.2,0.2c-0.2-0.3-0.2-0.6-0.2-0.9c0-4.6,0-9.2,0-13.9c0-0.2,0-0.4,0-0.6
		c0-0.2,0.1-0.3,0.3-0.4c0.2-0.1,0.4-0.1,0.6-0.1c1.5-0.2,1.2-0.3,2,0.8c2.1,2.8,4.2,5.5,6.3,8.3C444.3,131,444.6,131.3,445,131.8z"
		/>
	<path class="st0" d="M453.7,132.2c1.7-0.3,3.3-0.6,4.8-0.9c1.5-0.3,3-0.5,4.4-0.8c0.3,0.1,0.3,0.3,0.3,0.5c0,1.3,0.2,1.4-1.3,1.6
		c-3,0.5-5.9,1-8.9,1.6c-0.5,0.1-0.9,0.1-1.4,0.2c-0.3-0.3-0.2-0.6-0.2-0.9c0-4.6,0-9.1,0-13.7c0-0.1,0-0.3,0-0.4
		c0-0.6,0.1-0.7,0.8-0.8c1.5-0.3,3-0.5,4.5-0.8c1.7-0.3,3.4-0.6,5.1-0.9c0.3-0.1,0.6-0.2,1,0c0,0.1,0.1,0.2,0.1,0.4
		c0,1.3,0.2,1.4-1.3,1.6c-2.4,0.4-4.9,0.9-7.3,1.3c-0.4,0.1-0.6,0.2-0.6,0.6c0,1.3-0.1,2.6,0.1,4.1c2.8-0.4,5.6-1,8.3-1.4
		c0.1,0.1,0.2,0.2,0.2,0.3c0,2,0.3,1.6-1.6,1.9c-2.1,0.4-4.3,0.8-6.5,1.1c-0.4,0.1-0.6,0.3-0.6,0.7
		C453.7,129,453.7,130.5,453.7,132.2z"/>
	<path class="st0" d="M494,125.2c0,0.1,0.1,0.2,0.1,0.3c0,1.6,0.3,1.5-1.4,1.8c-3,0.5-5.9,1-8.9,1.6c-0.4,0.1-0.8,0.1-1.2,0.2
		c-0.3-0.2-0.3-0.4-0.3-0.6c0-4.7,0-9.4,0-14.1c0-0.9,0-0.9,0.8-1c0.9-0.2,1.9-0.3,2.8-0.5c2.2-0.4,4.4-0.8,6.6-1.2
		c0.3,0,0.6-0.1,0.8-0.1c0.2,0,0.3,0.1,0.3,0.3c0,0.3,0,0.6,0,0.9c0,0.7-0.1,0.8-0.7,0.9c-1.7,0.3-3.5,0.6-5.2,0.9
		c-0.9,0.2-1.9,0.3-2.8,0.5c-0.3,0.1-0.5,0.2-0.5,0.5c0,1.2,0,2.5,0,3.7c0,0.3,0.2,0.4,0.4,0.4c0.8-0.1,1.7-0.3,2.5-0.4
		c1.7-0.3,3.5-0.6,5.2-0.9c0.3-0.1,0.4,0.1,0.5,0.4c0.1,1.4,0.1,1.5-1.3,1.7c-2.2,0.4-4.5,0.8-6.7,1.2c-0.4,0.1-0.6,0.3-0.6,0.6
		c0,1.3,0,2.6,0,3.9c0,0.7,0.1,0.8,0.7,0.7c1.3-0.2,2.6-0.5,3.9-0.7c1.3-0.2,2.5-0.5,3.8-0.7C493.3,125.2,493.6,125.1,494,125.2z"/>
	<path class="st0" d="M476.2,119c-0.1-0.3-0.1-0.5-0.2-0.6c-0.5-1.2-1.2-1.7-2.5-1.7c-1.1,0-2.2,0.2-3.2,0.8c-0.8,0.4-1.3,1.1-1.5,2
		c-0.1,0.9,0.3,1.5,1.1,1.7c0.8,0.2,1.6,0.3,2.4,0.3c1,0,1.9,0.1,2.8,0.3c0.1,0,0.3,0,0.4,0.1c2.4,0.5,3.5,2.4,2.8,4.7
		c-0.4,1.3-1.2,2.4-2.3,3.1c-1.9,1.3-4,1.7-6.3,1.5c-2.1-0.2-3.4-1.6-3.7-3.7c-0.1-0.4,0-0.6,0.5-0.7c0.2-0.1,0.4-0.1,0.6-0.1
		c0.9-0.2,0.9-0.2,1.2,0.6c0.3,1.1,1,1.7,2.1,1.9c1.9,0.4,3.6-0.1,5.1-1.2c0.5-0.4,0.8-0.9,0.9-1.4c0.3-1-0.1-1.9-1.2-2.3
		c-0.7-0.2-1.4-0.3-2.1-0.3c-1-0.1-2-0.2-3-0.3c-0.5-0.1-0.9-0.2-1.4-0.3c-1.5-0.6-2.3-1.9-2.1-3.5c0.2-1.3,0.7-2.4,1.8-3.2
		c2-1.6,4.3-2.1,6.9-1.6c1.2,0.3,2.1,1,2.5,2.1c0.5,1.6,0.5,1.5-1,1.9C476.7,119,476.5,119,476.2,119z"/>
	<path class="st0" d="M504.9,125.1c-0.2-0.3-0.2-0.6-0.2-0.9c0-4.6,0-9.2,0-13.8c0-0.2,0-0.4,0-0.6c0-0.2,0.2-0.3,0.3-0.4
		c0.1,0,0.3-0.1,0.4-0.1c3.2-0.6,6.5-1.1,9.7-1.7c0.1,0.2,0.2,0.3,0.2,0.4c0,1.6,0.3,1.5-1.4,1.8c-2.2,0.4-4.3,0.8-6.5,1.1
		c-0.3,0.1-0.5,0.2-0.5,0.5c0,1.4,0,2.7,0,4.2c2.4-0.4,4.8-0.8,7-1.2c0.2,0.2,0.3,0.4,0.3,0.5c0,1.3,0.3,1.3-1.3,1.6
		c-1.8,0.3-3.6,0.6-5.3,0.9c-0.5,0.1-0.6,0.2-0.6,0.8c0,1.5,0,3,0,4.6c0,0.4,0,0.9,0,1.3c0,0.5-0.1,0.6-0.5,0.7
		C505.9,125,505.4,125,504.9,125.1z"/>
	<path class="st0" d="M379.3,142.6c0.1,0.5,0.1,0.9,0.3,1.4c0.3,0.9,0.9,1.3,1.8,1.2c1.3-0.1,2.2-1,2.4-2.3c0.1-0.7,0.1-1.3,0.1-2
		c0-2.9,0-5.8,0-8.7c0-0.4,0-0.8,0-1.1c0-0.2,0.1-0.4,0.3-0.4c0.6,0,1.1-0.3,1.6-0.2c0.2,0.3,0.2,0.5,0.2,0.7c0,3.4,0,6.9,0,10.3
		c0,0.8-0.1,1.5-0.3,2.3c-0.3,1.2-1,2-2,2.6c-1,0.6-2,0.9-3.1,0.9c-1.6,0-2.7-0.9-3.1-2.4c-0.1-0.3-0.1-0.6-0.1-0.8
		c-0.1-0.8,0-0.8,0.7-1.1C378.5,142.7,378.8,142.5,379.3,142.6z"/>
	<path class="st0" d="M585.4,55.8c0,0,0.2,0,0.4,0c1.2,0.1,1.2,0.1,1,1.3c-0.4,2.9-1.1,5.7-2,8.4c-0.2,0.6-0.3,0.6-0.9,0.5
		c-0.2-0.1-0.5-0.1-0.7-0.2c-1.3-0.4-1.3-0.4-0.9-1.7c0.7-2.4,1.3-4.7,1.7-7.2c0-0.2,0.1-0.5,0.1-0.7c0.1-0.5,0.1-0.5,0.7-0.5
		C584.9,55.7,585.1,55.8,585.4,55.8z"/>
	<path class="st0" d="M593.8,63.2c-0.4-0.9-0.3-1.9-0.5-2.7c-0.3-1.7-0.7-3.3-1.2-5c-0.1-0.3,0-0.5,0.2-0.6c0,0,0.1,0,0.1-0.1
		c2.6-1.2,2-1.6,2.9,1.2c0.5,1.8,0.8,3.6,1,5.4c0,0.4,0,0.7-0.4,0.8C595.3,62.6,594.5,62.9,593.8,63.2z"/>
	<path class="st0" d="M601.9,55.3c-1.6-1.9-3.5-3.3-5.5-4.7c0.2-0.5,0.6-0.9,0.8-1.3c0.3-0.4,0.6-0.8,0.9-1.1c0.1-0.2,0.3-0.2,0.5,0
		c1.8,1.3,3.6,2.7,5.1,4.4c0.2,0.2,0.3,0.4,0.1,0.6C603.2,53.9,602.7,54.7,601.9,55.3z"/>
	<path class="st0" d="M604.4,44.8c-0.5,0.6-1,1.1-1.5,1.7c-0.6,0.8-0.7,0.7-1.2,0c-1-1.3-2.2-2.4-3.5-3.4c-0.3-0.2-0.6-0.4-0.9-0.9
		c0.6-0.7,1.2-1.5,1.8-2.4c0.6,0.3,1,0.7,1.5,1.1c0.4,0.4,0.9,0.7,1.3,1.1c0.5,0.4,0.9,0.8,1.3,1.3
		C603.7,43.9,604.1,44.2,604.4,44.8z"/>
	<path class="st0" d="M596.5,41.8c0,1.7-0.9,5.2-1.8,7.2c-0.7,0.1-1.3-0.3-1.9-0.4c-0.7-0.2-0.8-0.3-0.5-1c0.6-1.8,1.1-3.6,1.4-5.5
		c0.1-0.6,0.2-0.7,0.9-0.6C595.3,41.5,595.9,41.7,596.5,41.8z"/>
	<path class="st0" d="M584.1,50.8c-0.4-2-0.9-3.9-1.7-5.8c-0.1-0.3,0-0.5,0.3-0.7c0.7-0.4,1.4-0.8,2-1.1c0.5,0.1,0.5,0.4,0.6,0.7
		c0.6,1.6,1.1,3.2,1.5,4.9c0.1,0.6,0.1,0.7-0.5,1C585.5,50.1,584.9,50.6,584.1,50.8z"/>
	<path class="st0" d="M566.2,32.2c-3.5-9.6-10.5-15.1-20.6-16.4c-5.1-0.7-10.2,0.1-15,1.9c-13.5,5-23.6,17.9-25.1,31.4
		c-0.5,4.3-0.3,8.5,0.9,12.6c2.8,9.4,10.4,16.6,21.6,17.7c4.8,0.5,9.4-0.2,13.9-1.8c8.5-3.1,15-8.5,19.9-16c3.9-6,5.9-12.5,6-21.2
		C567.8,38.6,567.3,35.4,566.2,32.2z M553.4,52.3c-2.5,6.1-6.7,10.7-12.9,13.3c-3,1.2-6.1,1.7-9.2,1.3c-4.5-0.6-8-2.8-10.5-6.6
		c-1.9-2.9-2.7-6.1-2.6-9.5c0.2-6.6,2.7-12.1,7.4-16.6c3.1-3,6.8-5,11.2-5.7c4.7-0.8,9.1,0.1,12.9,3.2c2.6,2.2,4.2,5,4.9,8.3
		C555.4,44.2,555,48.4,553.4,52.3z"/>
	<path class="st0" d="M305.9,106.7c-2.1-3.7-4.2-7.3-6.4-11c0.5-0.4,1-0.7,1.5-1c8.5-5.7,11.1-15.1,9.2-23.5
		c-1.2-5.2-4.4-8.6-9.5-10.2c-2.5-0.8-5-1-7.6-0.8c-1.4,0.1-2.8,0.3-4.1,0.5c-7.5,1.3-14.9,2.6-22.4,3.9c-0.8,0.1-0.8,0.2-0.8,0.9
		c0,0.3,0,0.7,0,1c0,5.6,0,11.1,0,16.7c0,13.6,0,27.2,0,40.9c0,0.4,0,0.9,0,1.3c0,0.3,0.1,0.4,0.4,0.4c0.1,0,0.3,0,0.4-0.1
		c3.6-0.6,7.2-1.3,10.8-1.9c0.6-0.1,0.8-0.2,0.8-0.9c0-0.3,0-0.7,0-1c0-5.1,0-10.3,0-15.4c0-1.3,0-2.7,0-4c0-0.7,0.1-0.7,0.7-0.9
		c1.1-0.2,2.2-0.4,3.4-0.6c1.5-0.3,2.9-0.5,4.4-0.7c0.4-0.1,0.6,0,0.8,0.4c0.2,0.3,0.3,0.6,0.5,0.9c1.6,2.8,3.2,5.5,4.8,8.3
		c1.8,3.2,3.7,6.4,5.5,9.7c0.3,0.6,0.4,0.6,1,0.5c2-0.4,4-0.7,6-1.1c2.2-0.4,4.5-0.8,6.9-1.2C310.1,113.9,308,110.3,305.9,106.7z
		 M294.4,85.7c-1.5,1.2-3.3,1.9-5.2,2.3c-3.4,0.7-6.8,1.2-10.2,1.8c-0.2,0-0.5,0-0.7,0.1c-0.2-0.3-0.2-0.6-0.2-0.9
		c0-4.5,0-8.9,0-13.4c0-0.2,0-0.4,0-0.6c0-0.3,0.2-0.4,0.4-0.5c0.7-0.1,1.5-0.3,2.2-0.4c2.7-0.5,5.3-1,8-1.4
		c1.7-0.3,3.5-0.3,5.2,0.2c2.2,0.7,3.5,2.1,3.8,4.5C298.4,80.8,297.2,83.6,294.4,85.7z"/>
	<path class="st0" d="M492,85.4c-0.2-0.4-0.4-0.7-0.6-1.1c-3.7-6.3-7.4-12.7-11-19c-0.2-0.4-0.5-0.8-0.7-1.3c1.1-0.8,2.1-1.4,3-2.2
		c3.6-2.9,6.2-6.6,7.4-11.1c0.9-3.5,1.1-7.1,0.4-10.6c-1.1-5.5-4.3-9.1-9.6-10.8c-2.6-0.8-5.2-1-7.9-0.8c-2,0.2-4,0.5-5.9,0.9
		c-4.1,0.7-8.2,1.4-12.2,2.2c-2.8,0.5-5.5,1-8.3,1.5c-0.5,0.1-0.5,0.2-0.6,0.7c0,0.2,0,0.5,0,0.7c0,19.5,0,39.1,0,58.6
		c0,0.4-0.1,0.8,0.1,1.1c0.1,0,0.3,0,0.4,0c3.5-0.6,6.9-1.2,10.4-1.9c0.5-0.1,1.1,0.1,1.5-0.4c0.3-0.4,0.1-1,0.1-1.5
		c0-6.2,0-12.4,0-18.6c0-0.5-0.1-1,0.1-1.6c0.2-0.1,0.4-0.2,0.7-0.2c2.3-0.4,4.7-0.8,7-1.2c1.2-0.2,1-0.4,1.7,0.8
		c2.1,3.6,4.2,7.3,6.2,10.9c1.4,2.5,2.8,5,4.3,7.4c0.3,0.6,0.4,0.6,1,0.5c2.6-0.5,5.2-0.9,7.7-1.4c1.5-0.3,3.1-0.6,4.6-0.8
		C492.1,86,492.2,85.8,492,85.4z M474.7,53.8c-1.6,1.3-3.4,2.1-5.4,2.5c-3.6,0.7-7.2,1.3-10.8,1.9c-0.3-0.4-0.2-0.7-0.2-1
		c0-4.4,0-8.8,0-13.3c0-0.1,0-0.3,0-0.4c0-0.6,0.1-0.7,0.6-0.8c0.7-0.2,1.4-0.3,2.1-0.4c2.6-0.5,5.2-1,7.9-1.4
		c1.6-0.3,3.3-0.3,5,0.1c2.1,0.5,4,1.9,4.2,5.1C478.3,49.3,477.2,51.8,474.7,53.8z"/>
	<path class="st0" d="M183.4,93.5c-1.2-5.1-4.4-8.5-9.3-10.1c-2.4-0.8-4.9-1-7.5-0.9c-2.6,0.1-5.2,0.6-7.8,1.1
		c-5.8,1-11.6,2-17.4,3.1c-1.4,0.2-1.2,0.3-1.2,1.4c0,0.3,0,0.6,0,0.9c0,9.5,0,18.9,0,28.4c0,9.6,0,19.2,0,28.8c0,0.4,0,0.9,0,1.3
		c0,0.3,0.2,0.4,0.5,0.4c0.2,0,0.5,0,0.7-0.1c3.4-0.6,6.8-1.2,10.1-1.8c1.2-0.2,1.2,0.1,1.2-1.4c0-6.2,0-12.5,0-18.7
		c0-0.4,0-0.8,0-1.1c0-0.3,0.2-0.4,0.4-0.5c0.2-0.1,0.4-0.1,0.6-0.1c3.2-0.6,6.4-1.1,9.6-1.7c3.6-0.7,6.9-2,10.1-3.9
		C183,112.5,185.3,102,183.4,93.5z M168.4,107.7c-1.7,1.5-3.6,2.4-5.8,2.9c-2,0.5-4.1,0.8-6.2,1.2c-0.8,0.2-1.7,0.3-2.5,0.4
		c-1.3,0.2-1.3,0.2-1.3-1c0-2.2,0-4.5,0-6.7c0-2.1,0-4.2,0-6.3c0-0.2,0-0.5,0-0.7c0-0.8,0-0.8,0.7-0.9c1.4-0.3,2.7-0.5,4.1-0.8
		c1.5-0.3,3-0.6,4.5-0.8c1.7-0.2,3.3-0.3,5,0.1c2.4,0.6,3.9,2.1,4.3,4.6C171.7,102.9,170.8,105.6,168.4,107.7z"/>
	<path class="st0" d="M607.7,5.8c0-0.4,0.1-0.9-0.1-1.4c-1.3,0.2-2.5,0.4-3.7,0.6c-4,0.7-8.1,1.4-12.1,2.1c-1.8,0.3-3.6,0.6-5.3,0.9
		c-0.9,0.2-0.9,0.2-1,1.2c0,0,0,0.1,0,0.1c0,8.7,0,17.4,0,26.1c0,0.2,0,0.5,0,0.7c0,0.2,0.2,0.3,0.4,0.3c0.9-0.2,1.9-0.2,2.8-0.6
		c0.2-0.5,0.1-1.1,0.1-1.6c0-0.5,0.1-0.6,0.7-0.7c4.7-0.8,9.5-1.7,14.2-2.5c0.3,0,0.6-0.2,0.8,0.1c0.2,0.6-0.1,1.3,0.2,1.9
		c0.9,0,1.7-0.3,2.6-0.4c0.3,0,0.4-0.2,0.4-0.5c0-0.3,0-0.7,0-1C607.7,22.8,607.7,14.3,607.7,5.8z M588.9,10.8
		c1.1-0.4,14.1-2.7,15.6-2.8c0,2.7,0,5.3,0,7.9c-0.9,0.4-13.4,2.5-15.6,2.8C588.8,17.7,588.7,12.6,588.9,10.8z M604.5,28
		c-0.2,0.1-0.3,0.2-0.5,0.2c-5,0.9-10,1.8-15,2.6c-0.2-1.1-0.2-6.8-0.1-8.9c1-0.4,14-2.7,15.5-2.8C604.6,20.1,604.7,25.8,604.5,28z"
		/>
	<path class="st0" d="M644.2,56.6c-2.6,0.4-5.2,0.9-7.8,1.3c-0.2-1-0.1-1.9-0.1-2.8c0-0.3,0.3-0.5,0.6-0.5c1.2-0.2,2.4-0.4,3.7-0.6
		c0.8-0.1,1.7-0.3,2.5-0.5c0.2,0,0.4-0.1,0.4-0.3c0-0.8,0.2-1.5-0.1-2.2c-0.6-0.2-1.2,0-1.8,0.1c-0.6,0.1-1.1,0.2-1.7,0.3
		c-1.2,0.2-2.3,0.4-3.5,0.6c-0.2-0.7-0.1-1.4-0.1-2.1c0-0.6,0-0.6,0.7-0.8c0.5-0.1,0.9-0.2,1.4-0.3c1.5-0.3,3-0.5,4.6-0.8
		c0-0.4,0-0.7,0-1c0-4.6,0-9.2,0-13.9c0-0.2,0-0.5,0-0.7c0-0.4-0.2-0.5-0.5-0.5c-0.3,0-0.7,0.1-1,0.1c-4.6,0.8-9.3,1.6-13.9,2.5
		c-0.3,0-0.6,0.1-0.8,0.2c-0.2,0.1-0.3,0.2-0.3,0.4c0,0.2,0,0.5,0,0.7c0,4.8,0,9.5,0,14.3c0,0.2,0,0.5,0.2,0.7c0.3,0,0.6,0,0.9-0.1
		c1.5-0.3,3.1-0.5,4.6-0.8c1.2-0.3,1.1,0,1.1,0.9c0,0.4,0,0.8,0,1.1c0,0.3-0.1,0.5-0.5,0.6c-1,0.2-2.1,0.3-3.1,0.6
		c-1.1,0.2-2.3,0.3-3.5,0.7c0,0.9-0.1,1.7,0.1,2.6c0.7-0.1,1.4-0.2,2-0.3c1.5-0.2,2.9-0.5,4.4-0.7c0.4-0.1,0.5,0.1,0.5,0.5
		c0,0.7,0,1.3,0,2c0,0.6-0.1,0.6-0.6,0.7c-1.6,0.3-3.2,0.6-4.8,0.8c-0.7,0.1-1.5,0.2-2.3,0.4c-0.3,0.1-0.5,0.2-0.5,0.6
		c0,0.7-0.1,1.5,0.1,2.3c0.6-0.1,1.1-0.2,1.6-0.2c1.9-0.3,3.7-0.7,5.6-1c3.7-0.6,7.3-1.3,11-1.9c0.9-0.1,1-0.2,0.9-1.1
		C644.3,57.9,644.5,57.2,644.2,56.6z M640.1,45.2c0,0.4-0.1,0.7-0.5,0.7c-1,0.1-2,0.5-3.1,0.4c0-0.2-0.1-0.4-0.1-0.6
		c0-1.1,0-2.3,0-3.4c0.2-0.1,0.4-0.2,0.6-0.2c1-0.2,2-0.3,2.9-0.5c0.3,0.3,0.3,0.6,0.3,0.8C640.1,43.4,640.1,44.3,640.1,45.2z
		 M633.3,46.6c0,0.3-0.2,0.5-0.5,0.6c-1,0.2-2.1,0.3-3.3,0.5c0-1.5,0-2.8,0-4.1c1.1-0.4,2.2-0.5,3.4-0.7c0.3,0,0.4,0.1,0.4,0.4
		C633.3,44.4,633.3,45.5,633.3,46.6z M633.3,39.8c0,0.3-0.1,0.5-0.5,0.6c-1.1,0.2-2.1,0.4-3.4,0.6c0-1.3,0-2.3,0-3.3
		c0-0.5,0.1-0.6,0.5-0.7c0.9-0.2,1.9-0.3,2.8-0.5c0.3-0.1,0.5,0.1,0.5,0.5C633.4,37.9,633.3,38.8,633.3,39.8z M636.4,36.1
		c0-0.2,0.1-0.3,0.4-0.4c1.1-0.2,2.1-0.4,3.3-0.6c0.2,1.2,0.1,2.4,0.1,3.6c0,0.2-0.1,0.3-0.3,0.4c-1.1,0.2-2.1,0.4-3.3,0.6
		C636.2,38.5,636.4,37.3,636.4,36.1z"/>
	<path class="st0" d="M612.3,101.2c-0.1-1.1-0.6-2-1.7-2.5c-0.3-0.2-0.6-0.3-0.9-0.4c0.3-0.4,0.7-0.6,0.9-1c0.3-0.4,0.5-0.8,0.7-1.2
		c0.8-2.2-0.4-4.6-3-4.6c-0.3,0-0.7,0-1,0c-0.7,0.1-1.3,0.2-2,0.3c-1.3,0.2-2.6,0.4-3.9,0.7c-1.1,0.2-1,0.3-1,1.2c0,0.1,0,0.2,0,0.3
		c0,4.4,0,8.8,0,13.1c0,0.2,0,0.4,0,0.6c0,0.6,0.1,0.7,0.7,0.6c2-0.3,3.9-0.7,5.9-1c1-0.2,1.9-0.5,2.8-1
		C611.6,105,612.4,103.3,612.3,101.2z M602.6,94.7c0-0.3,0.1-0.6,0.5-0.6c1.2-0.2,2.4-0.4,3.7-0.6c0.3,0,0.6-0.1,0.9-0.1
		c1.2,0,1.9,0.7,1.9,2c0,0.8-0.4,1.5-1,1.9c-0.3,0.2-0.7,0.4-1,0.5c-1.5,0.4-3.1,0.7-4.8,0.9C602.6,97.2,602.6,96,602.6,94.7z
		 M608.5,104.6c-0.3,0.2-0.6,0.3-0.9,0.4c-1.6,0.4-3.3,0.6-4.9,0.9c-0.2-1.2-0.2-4.1,0-5.2c1.5-0.2,3-0.5,4.5-0.7
		c0.4-0.1,0.9-0.1,1.3,0c0.9,0.2,1.4,0.7,1.5,1.6C610.2,102.9,609.6,104,608.5,104.6z"/>
	<path class="st0" d="M642.7,96.9c-0.3-0.3-0.5-0.7-0.8-1c-0.4-0.4-0.8-0.8-1.3-1.2c-0.2-0.2-0.5-0.2-0.6-0.5
		c0.7-0.3,1.5-0.7,2.1-1.2c1.6-1.3,2.2-3.3,1.6-5.1c-0.4-1.3-1.4-2-2.8-2.1c-0.9-0.1-1.7,0-2.6,0.2c-1.5,0.3-3,0.5-4.5,0.8
		c-0.7,0.1-1.3,0.2-2,0.4c-0.4,0.1-0.5,0.2-0.5,0.7c0,0.1,0,0.2,0,0.3c0,4.7,0,9.4,0,14.1c0,0.2,0,0.5,0.2,0.6
		c0.4,0,0.7-0.1,1.1-0.2c0.7-0.1,0.8-0.2,0.8-0.9c0-1.7,0-3.4,0-5.1c0-0.3-0.1-0.7,0.2-1c0.8-0.1,1.6-0.3,2.5-0.4
		c1.1-0.2,2,0.1,2.7,0.9c0.5,0.6,1,1.2,1.5,1.9c0.6,0.8,1.2,1.7,1.8,2.5c0.1,0.2,0.3,0.5,0.5,0.4c0.8-0.2,1.6-0.1,2.4-0.6
		C644.3,99.1,643.5,98,642.7,96.9z M634.2,93.5c-0.5,0.1-0.6,0-0.6-0.5c0-1.4,0-2.9,0-4.2c0.6-0.4,1.3-0.4,1.9-0.5
		c1.1-0.2,2.3-0.4,3.4-0.6c0.4-0.1,0.8-0.1,1.3,0c1.2,0.2,1.8,1.1,1.7,2.2c-0.1,0.9-0.6,1.6-1.3,2.1c-0.4,0.2-0.8,0.5-1.3,0.6
		C637.4,92.9,635.8,93.2,634.2,93.5z"/>
	<path class="st0" d="M567.5,104.9c-0.1-0.9-0.3-1.9-0.7-2.7c-0.9-1.7-2.2-2.7-4.2-2.7c-0.7,0-1.3,0-2,0.1c-1.1,0.2-2.2,0.3-3.2,0.6
		c-0.9,0.2-1.9,0.2-2.8,0.6c-0.2,1.5-0.1,14.5,0,15.5c0.1,0,0.2,0.1,0.3,0c1.9-0.3,3.7-0.7,5.6-1c0.6-0.1,1.1-0.2,1.7-0.4
		c2.1-0.7,3.6-2.1,4.5-4.1C567.5,108.9,567.8,106.9,567.5,104.9z M564.5,110.6c-0.6,1.4-1.7,2.2-3.1,2.5c-1,0.3-1.9,0.4-2.9,0.6
		c-0.5,0.1-1,0.2-1.6,0.2c-0.2-0.4-0.2-0.6-0.2-0.9c0-3.2,0-6.5,0-9.7c0-0.2,0-0.5,0-0.7c0-0.3,0.2-0.4,0.4-0.5
		c1.5-0.2,2.9-0.6,4.4-0.7c2-0.2,3.1,1.1,3.4,2.4C565.6,106.1,565.5,108.4,564.5,110.6z"/>
	<path class="st0" d="M589.3,107.9c-0.4-0.3-0.8-0.6-1-1c-0.1-0.4,0.3-0.8,0.4-1.2c0.3-0.8,0.7-1.5,0.7-2.5c-0.5,0-1-0.1-1.5-0.1
		c-0.3,0-0.5,0.1-0.6,0.4c-0.2,0.5-0.2,1.1-0.6,1.6c-0.1-0.1-0.3-0.1-0.4-0.2c-0.7-0.8-1.5-1.6-2.3-2.5c0.5-0.4,0.9-0.8,1.3-1.2
		c0.8-0.8,1.4-1.7,1.5-2.8c0.2-1.8-1.1-3.3-2.9-3.2c-1.9,0.1-3.4,1-4.2,2.7c-0.6,1.2-0.5,2.4,0.3,3.5c0.3,0.4,0.8,0.7,0.8,1.1
		c0,0.6-0.7,0.7-1,1c-0.2,0.2-0.4,0.4-0.6,0.6c-0.7,0.8-1.3,1.6-1.6,2.7c-0.7,2.8,1.4,5,3.8,5c1.8,0,3.3-0.7,4.6-1.9
		c0.3-0.3,0.5-0.8,1-0.9c0.7,0.6,1.4,1.2,2.3,1.6c0.5-0.5,1-1.1,1.3-1.8C590.1,108.5,589.7,108.2,589.3,107.9z M581.8,98
		c0.5-0.7,1.1-1,2-0.9c0.6,0.1,1,0.5,1.1,1.1c0.1,0.7-0.1,1.3-0.5,1.9c-0.4,0.4-0.8,0.8-1.4,1.2c-0.5-0.4-0.9-0.8-1.2-1.2
		C581.3,99.3,581.3,98.6,581.8,98z M585.3,107.9c-0.7,0.9-1.6,1.6-2.7,1.9c-1.5,0.4-2.7-0.4-2.9-1.9c-0.1-0.8,0.1-1.5,0.5-2.2
		c0.2-0.3,0.4-0.5,0.6-0.8c0.4-0.4,0.8-0.8,1.4-1.1c1.1,1.1,2.1,2.2,3.1,3.3C585.5,107.4,585.5,107.7,585.3,107.9z"/>
	<path class="st0" d="M532.5,108.5c-0.8-1.7-2.2-2.8-4-3.1c-2.7-0.4-5,0.3-7,2c-3,2.7-3.8,6.2-2.9,10c0.9,3.4,3.6,4.5,5.9,4.3
		c3.4-0.2,6-1.8,7.6-4.8c0.8-1.5,1.1-3.1,1.1-4.8C533.3,111,533.1,109.7,532.5,108.5z M530.4,116c-1,2.3-2.8,3.7-5.4,3.8
		c-2.1,0.1-3.7-1-4.3-3c-0.5-2-0.4-4.1,0.5-6c1-2.3,2.9-3.5,5.4-3.6c1.7-0.1,3.2,0.8,3.9,2.5c0.2,0.4,0.3,0.8,0.4,1.2
		c0.1,0.6,0.1,1.1,0.2,1.7C531.1,113.9,530.9,115,530.4,116z"/>
	<path class="st0" d="M551.1,109.3c0-1.5-0.2-2.9-0.9-4.2c-0.8-1.5-2.1-2.4-3.8-2.8c-1.2-0.3-2.5-0.1-3.7,0.2c-3.5,1-6.1,4-6.5,7.7
		c-0.2,1.8-0.2,3.5,0.6,5.2c1,2.1,2.6,3.2,4.9,3.3c3.8,0.2,7.3-2.1,8.7-5.7C550.9,111.8,551.1,110.5,551.1,109.3z M547.8,113.7
		c-1,1.8-2.6,2.8-4.7,3c-2.4,0.2-4.2-1.2-4.6-3.5c-0.1-0.6-0.1-1.3-0.2-1.7c0.1-1.2,0.2-2,0.4-2.9c0.6-2.2,2.7-4.2,5.5-4.5
		c1.9-0.2,3.5,0.8,4.1,2.6C549.2,109.1,549.1,111.5,547.8,113.7z"/>
	<path class="st0" d="M628.4,102.1c-1.7-4-3.5-7.9-5.2-11.9c-0.7-1.7-0.7-1.7-2.5-1.2c-0.3,0.1-0.5,0.2-0.6,0.5
		c-0.1,0.2-0.2,0.4-0.2,0.7c-1.8,5-3.6,9.9-5.3,14.9c-0.1,0.2-0.2,0.4-0.1,0.7c0.5,0.1,1-0.1,1.5-0.2c0.4,0,0.6-0.3,0.8-0.7
		c0.4-1.3,0.9-2.5,1.3-3.8c0.1-0.5,0.4-0.7,0.9-0.8c1-0.1,2-0.3,3-0.5c0.8-0.1,1.6-0.3,2.4-0.4c0.3-0.1,0.5,0.1,0.7,0.4
		c0.1,0.3,0.2,0.5,0.3,0.8c0.4,0.9,0.7,1.8,1.1,2.6c0.1,0.2,0.2,0.5,0.5,0.4c0.7-0.2,1.4-0.1,2.1-0.5
		C628.7,102.8,628.6,102.4,628.4,102.1z M623.5,97.7c-1.5,0.2-2.9,0.6-4.6,0.7c0.8-2.5,1.7-4.7,2.3-7.1c0.2,0,0.3,0.2,0.4,0.3
		c0.7,1.7,1.3,3.3,2,5c0.1,0.2,0.1,0.4,0.2,0.5C623.8,97.5,623.7,97.7,623.5,97.7z"/>
	<path class="st0" d="M402.9,142.4c-1.4-3.2-2.8-6.4-4.3-9.6c-0.5-1.2-1.1-2.4-1.6-3.7c-0.3-0.6-0.3-0.6-1-0.5
		c-0.2,0-0.5,0.1-0.7,0.1c-0.6,0.1-1,0.3-1.2,1c-1.2,3.4-2.4,6.8-3.6,10.2c-0.7,1.8-1.3,3.7-2.1,5.7c0.7-0.1,1.2-0.2,1.6-0.2
		c0.6,0,0.8-0.4,1-0.9c0.4-1.2,0.8-2.4,1.2-3.6c0.1-0.5,0.4-0.7,0.9-0.8c1-0.1,2.1-0.4,3.1-0.5c0.7-0.1,1.4-0.2,2.1-0.3
		c0.5-0.1,0.6,0,0.8,0.5c0.4,1,0.8,1.9,1.2,2.9c0.4,0.9,0.4,0.8,1.2,0.7c0.3,0,0.6-0.1,0.8-0.1C403.1,143.1,403.2,143,402.9,142.4z
		 M397.8,137.4c-1.5,0.2-3,0.6-4.7,0.8c0.8-2.5,1.7-4.7,2.3-7.1c0.2,0,0.3,0.2,0.4,0.3c0.7,1.7,1.3,3.3,2,5c0.1,0.2,0.1,0.4,0.2,0.5
		C398.1,137.2,398.1,137.4,397.8,137.4z"/>
	<path class="st0" d="M432.3,137.5c-0.1-0.3-0.3-0.6-0.4-0.9c-1.7-4-3.5-7.9-5.2-11.9c-0.7-1.6-0.7-1.6-2.4-1.2
		c-0.4,0.1-0.6,0.3-0.7,0.6c-0.1,0.2-0.1,0.4-0.2,0.5c-1.8,4.9-3.5,9.7-5.3,14.6c-0.1,0.3-0.3,0.6-0.2,0.9c0.2,0.2,0.5,0.1,0.7,0.1
		c0.4-0.1,0.7-0.2,1.1-0.2c0.3,0,0.4-0.2,0.5-0.5c0.1-0.3,0.2-0.5,0.3-0.8c0.4-1.1,0.7-2.2,1.1-3.2c0.1-0.3,0.3-0.6,0.7-0.7
		c1.7-0.3,3.5-0.6,5.2-0.9c0.8-0.1,0.8-0.1,1.1,0.7c0.3,0.6,0.5,1.2,0.8,1.8c0.8,1.8,0.8,1.8,2.6,1.4c0,0,0.1,0,0.1,0
		C432.2,137.9,432.4,137.7,432.3,137.5z M422.5,133c0.6-2.5,1.7-4.6,2.2-7c0.1,0.1,0.3,0.1,0.4,0.2c0.7,1.8,1.4,3.6,2.1,5.4
		c0.1,0.2,0.1,0.4,0.2,0.6C425.7,132.5,424.2,132.9,422.5,133z"/>
	<path class="st0" d="M417.4,128c-0.4-1.2-1.2-2-2.5-2.3c-0.7-0.1-1.3-0.1-2,0c-1.7,0.3-3.4,0.6-5.1,0.8c-0.6,0.1-1.2,0.2-1.8,0.3
		c-0.3,0.1-0.5,0.3-0.5,0.6c0,0.1,0,0.3,0,0.4c0,4.6,0,9.2,0,13.8c0,0.3-0.1,0.6,0.2,0.9c0.5-0.1,1-0.1,1.5-0.2
		c0.3,0,0.4-0.2,0.4-0.5c0-0.6,0-1.2,0-1.9c0-1.2,0-2.4,0-3.6c0-0.5,0.1-0.5,0.6-0.6c1.1-0.2,2.3-0.4,3.4-0.6
		c1.1-0.2,2.2-0.5,3.2-1.1C417.1,132.9,418.1,130.3,417.4,128z M413.9,132.5c-0.3,0.2-0.6,0.3-0.9,0.4c-1.6,0.4-3.2,0.7-4.8,0.9
		c-0.3,0-0.5-0.1-0.5-0.4c0-0.8,0-1.5,0-2.3c0,0,0,0,0,0c0-0.7,0-1.4,0-2.1c0-0.3,0.1-0.6,0.5-0.6c1.6-0.3,3.2-0.6,4.8-0.8
		c1.4-0.2,2.3,0.6,2.4,2C415.4,130.8,415,131.9,413.9,132.5z"/>
</g>
</svg>
